0
SECTION
2
HEADER
9
$INSUNITS
70
4
9
$ACADVER
1
AC1014
9
$HANDSEED
5
FFFF
0
ENDSEC
0
SECTION
2
TABLES
0
TABLE
2
VPORT
5
8
100
AcDbSymbolTable
0
ENDTAB
0
TABLE
2
LTYPE
5
5
100
AcDbSymbolTable
0
LTYPE
5
14
100
AcDbSymbolTableRecord
100
AcDbLinetypeTableRecord
2
BYBLOCK
70
0
0
LTYPE
5
15
100
AcDbSymbolTableRecord
100
AcDbLinetypeTableRecord
2
BYLAYER
70
0
0
ENDTAB
0
TABLE
2
LAYER
5
2
100
AcDbSymbolTable
70
2
0
LAYER
5
50
100
AcDbSymbolTableRecord
100
AcDbLayerTableRecord
2
0
70
0
6
CONTINUOUS
0
ENDTAB
0
TABLE
2
STYLE
5
3
100
AcDbSymbolTable
70
1
0
STYLE
5
11
100
AcDbSymbolTableRecord
100
AcDbTextStyleTableRecord
2
STANDARD
70
0
0
ENDTAB
0
TABLE
2
VIEW
5
6
100
AcDbSymbolTable
70
0
0
ENDTAB
0
TABLE
2
UCS
5
7
100
AcDbSymbolTable
70
0
0
ENDTAB
0
TABLE
2
APPID
5
9
100
AcDbSymbolTable
70
2
0
APPID
5
12
100
AcDbSymbolTableRecord
100
AcDbRegAppTableRecord
2
ACAD
70
0
0
ENDTAB
0
TABLE
2
DIMSTYLE
5
A
100
AcDbSymbolTable
70
1
0
ENDTAB
0
TABLE
2
BLOCK_RECORD
5
1
100
AcDbSymbolTable
70
1
0
BLOCK_RECORD
5
1F
100
AcDbSymbolTableRecord
100
AcDbBlockTableRecord
2
*MODEL_SPACE
0
BLOCK_RECORD
5
1B
100
AcDbSymbolTableRecord
100
AcDbBlockTableRecord
2
*PAPER_SPACE
0
ENDTAB
0
ENDSEC
0
SECTION
2
BLOCKS
0
BLOCK
5
20
100
AcDbEntity
100
AcDbBlockBegin
2
*MODEL_SPACE
0
ENDBLK
5
21
100
AcDbEntity
100
AcDbBlockEnd
0
BLOCK
5
1C
100
AcDbEntity
100
AcDbBlockBegin
2
*PAPER_SPACE
0
ENDBLK
5
1D
100
AcDbEntity
100
AcDbBlockEnd
0
ENDSEC
0
SECTION
2
ENTITIES
0
LINE
5
100
100
AcDbEntity
8
0
100
AcDbLine
10
0
20
0
30
0
11
0
21
100
31
0
0
SPLINE
5
101
100
AcDbEntity
8
0
100
AcDbSpline
70
4
71
5
72
21
73
15
74
0
42
0.000000001
43
0.0000000001
44
0.0000000001
40
0
40
0
40
0
40
0
40
0
40
0
40
0.10000000000000001
40
0.20000000000000001
40
0.30000000000000004
40
0.40000000000000002
40
0.5
40
0.59999999999999998
40
0.69999999999999996
40
0.79999999999999993
40
0.89999999999999991
40
1
40
1
40
1
40
1
40
1
40
1
41
1
41
1
41
1
41
1
41
1
41
1
41
1
41
1
41
1
41
1
41
1
41
1
41
1
41
1
41
1
10
0
20
900
30
0
10
-6.2574277585592331
20
883.99999999995532
30
0
10
-18.225825091389623
20
851.99999999987858
30
0
10
-34.539096778158147
20
803.9999999997998
30
0
10
-52.957102788271214
20
739.99999999976285
30
0
10
-70.04756462957431
20
659.99999999980537
30
0
10
-80.675839525030142
20
579.99999999989643
30
0
10
-84.314563870288879
20
500.0000000000033
30
0
10
-80.67583952503837
20
420.00000000009652
30
0
10
-70.047564629589033
20
340.00000000015683
30
0
10
-52.957102788288559
20
260.00000000017002
30
0
10
-34.539096778172578
20
196.00000000013469
30
0
10
-18.225825091398288
20
148.00000000007896
30
0
10
-6.2574277585623985
20
116.00000000002852
30
0
10
0
20
100
30
0
0
LINE
5
102
100
AcDbEntity
8
0
100
AcDbLine
10
-162.50000000000006
20
1.9900510486144496e-14
30
0
11
0
21
0
31
0
0
LINE
5
103
100
AcDbEntity
8
0
100
AcDbLine
10
-212.50000000000006
20
790
30
0
11
-245.00000000000006
21
790
31
0
0
LINE
5
104
100
AcDbEntity
8
0
100
AcDbLine
10
-163.85044944139108
20
994
30
0
11
-212.50000000000006
21
790
31
0
0
CIRCLE
5
105
100
AcDbEntity
8
0
100
AcDbCircle
10
-245.00000000000011
20
500
30
0
40
3.0000000000000244
210
0
220
0
230
1
0
LINE
5
106
100
AcDbEntity
8
0
100
AcDbLine
10
-245.00000000000011
20
503.00000000000006
30
0
11
-195.00000000000011
21
503.00000000000006
31
0
0
LINE
5
107
100
AcDbEntity
8
0
100
AcDbLine
10
-245.00000000000006
20
790
30
0
11
-245.00000000000011
21
500
31
0
0
LINE
5
108
100
AcDbEntity
8
0
100
AcDbLine
10
-195.00000000000011
20
503.00000000000006
30
0
11
-195.00000000000011
21
497
31
0
0
LINE
5
109
100
AcDbEntity
8
0
100
AcDbLine
10
-195.00000000000011
20
497
30
0
11
-245.00000000000026
21
496.99999999999994
31
0
0
CIRCLE
5
110
100
AcDbEntity
8
0
100
AcDbCircle
10
-245.00000000000014
20
162.50000000000011
30
0
40
2.9999999999999929
210
0
220
0
230
1
0
LINE
5
111
100
AcDbEntity
8
0
100
AcDbLine
10
-245.00000000000026
20
496.99999999999994
30
0
11
-245.00000000000014
21
162.50000000000011
31
0
0
LINE
5
112
100
AcDbEntity
8
0
100
AcDbLine
10
-245.00000000000014
20
165.50000000000011
30
0
11
-145.00000000000014
21
165.50000000000011
31
0
0
LINE
5
113
100
AcDbEntity
8
0
100
AcDbLine
10
-145.00000000000014
20
165.50000000000011
30
0
11
-145.00000000000014
21
159.50000000000011
31
0
0
LINE
5
114
100
AcDbEntity
8
0
100
AcDbLine
10
-145.00000000000014
20
159.50000000000011
30
0
11
-245.00000000000017
21
159.50000000000011
31
0
0
LINE
5
115
100
AcDbEntity
8
0
100
AcDbLine
10
-245.00000000000017
20
159.50000000000011
30
0
11
-245.00000000000017
21
141.44345159815651
31
0
0
LINE
5
116
100
AcDbEntity
8
0
100
AcDbLine
10
-1.3117712044801724e-15
20
994
30
0
11
-6.0000000000000018
21
994
31
0
0
LINE
5
117
100
AcDbEntity
8
0
100
AcDbLine
10
-1.3117712044801724e-15
20
994
30
0
11
0
21
900
31
0
0
LINE
5
118
100
AcDbEntity
8
0
100
AcDbLine
10
-6.0000000000000018
20
994
30
0
11
-6.0000000000000018
21
1000
31
0
0
LINE
5
119
100
AcDbEntity
8
0
100
AcDbLine
10
-6.0000000000000018
20
1000
30
0
11
-12.000000000000002
21
1000
31
0
0
LINE
5
120
100
AcDbEntity
8
0
100
AcDbLine
10
-12.000000000000002
20
1000
30
0
11
-12.000000000000004
21
994
31
0
0
LINE
5
121
100
AcDbEntity
8
0
100
AcDbLine
10
-12.000000000000004
20
994
30
0
11
-18.000000000000004
21
994
31
0
0
LINE
5
122
100
AcDbEntity
8
0
100
AcDbLine
10
-18.000000000000004
20
994
30
0
11
-18.000000000000004
21
1000
31
0
0
LINE
5
123
100
AcDbEntity
8
0
100
AcDbLine
10
-18.000000000000004
20
1000
30
0
11
-24.000000000000004
21
1000
31
0
0
LINE
5
124
100
AcDbEntity
8
0
100
AcDbLine
10
-24.000000000000004
20
1000
30
0
11
-24.000000000000004
21
994
31
0
0
LINE
5
125
100
AcDbEntity
8
0
100
AcDbLine
10
-24.000000000000004
20
994
30
0
11
-30.000000000000004
21
994
31
0
0
LINE
5
126
100
AcDbEntity
8
0
100
AcDbLine
10
-30.000000000000004
20
994
30
0
11
-30.000000000000004
21
1000
31
0
0
LINE
5
127
100
AcDbEntity
8
0
100
AcDbLine
10
-30.000000000000004
20
1000
30
0
11
-36.000000000000007
21
1000
31
0
0
LINE
5
128
100
AcDbEntity
8
0
100
AcDbLine
10
-36.000000000000007
20
1000
30
0
11
-36.000000000000007
21
994
31
0
0
LINE
5
129
100
AcDbEntity
8
0
100
AcDbLine
10
-36.000000000000007
20
994
30
0
11
-42.000000000000014
21
994
31
0
0
LINE
5
130
100
AcDbEntity
8
0
100
AcDbLine
10
-42.000000000000014
20
994
30
0
11
-42.000000000000014
21
1000
31
0
0
LINE
5
131
100
AcDbEntity
8
0
100
AcDbLine
10
-42.000000000000014
20
1000
30
0
11
-48.000000000000007
21
1000
31
0
0
LINE
5
132
100
AcDbEntity
8
0
100
AcDbLine
10
-48.000000000000007
20
1000
30
0
11
-48.000000000000007
21
994
31
0
0
LINE
5
133
100
AcDbEntity
8
0
100
AcDbLine
10
-48.000000000000007
20
994
30
0
11
-54.000000000000014
21
994
31
0
0
LINE
5
134
100
AcDbEntity
8
0
100
AcDbLine
10
-54.000000000000014
20
994
30
0
11
-54.000000000000014
21
1000
31
0
0
LINE
5
135
100
AcDbEntity
8
0
100
AcDbLine
10
-54.000000000000014
20
1000
30
0
11
-60.000000000000007
21
1000
31
0
0
LINE
5
136
100
AcDbEntity
8
0
100
AcDbLine
10
-60.000000000000007
20
1000
30
0
11
-60.000000000000007
21
994
31
0
0
LINE
5
137
100
AcDbEntity
8
0
100
AcDbLine
10
-60.000000000000007
20
994
30
0
11
-66.000000000000014
21
994
31
0
0
LINE
5
138
100
AcDbEntity
8
0
100
AcDbLine
10
-66.000000000000014
20
994
30
0
11
-66.000000000000014
21
1000
31
0
0
LINE
5
139
100
AcDbEntity
8
0
100
AcDbLine
10
-66.000000000000014
20
1000
30
0
11
-72.000000000000014
21
1000
31
0
0
LINE
5
140
100
AcDbEntity
8
0
100
AcDbLine
10
-72.000000000000014
20
1000
30
0
11
-72.000000000000014
21
994
31
0
0
LINE
5
141
100
AcDbEntity
8
0
100
AcDbLine
10
-72.000000000000014
20
994
30
0
11
-78.000000000000014
21
994
31
0
0
LINE
5
142
100
AcDbEntity
8
0
100
AcDbLine
10
-78.000000000000014
20
994
30
0
11
-78.000000000000014
21
1000
31
0
0
LINE
5
143
100
AcDbEntity
8
0
100
AcDbLine
10
-78.000000000000014
20
1000
30
0
11
-84.000000000000028
21
1000
31
0
0
LINE
5
144
100
AcDbEntity
8
0
100
AcDbLine
10
-84.000000000000028
20
1000
30
0
11
-84.000000000000028
21
994
31
0
0
LINE
5
145
100
AcDbEntity
8
0
100
AcDbLine
10
-84.000000000000028
20
994
30
0
11
-90.000000000000014
21
994
31
0
0
LINE
5
146
100
AcDbEntity
8
0
100
AcDbLine
10
-90.000000000000014
20
994
30
0
11
-90.000000000000014
21
1000
31
0
0
LINE
5
147
100
AcDbEntity
8
0
100
AcDbLine
10
-90.000000000000014
20
1000
30
0
11
-96.000000000000014
21
1000
31
0
0
LINE
5
148
100
AcDbEntity
8
0
100
AcDbLine
10
-96.000000000000014
20
1000
30
0
11
-96.000000000000028
21
994
31
0
0
LINE
5
149
100
AcDbEntity
8
0
100
AcDbLine
10
-96.000000000000014
20
994
30
0
11
-102.00000000000001
21
994
31
0
0
LINE
5
150
100
AcDbEntity
8
0
100
AcDbLine
10
-102.00000000000001
20
994
30
0
11
-102.00000000000001
21
1000
31
0
0
LINE
5
151
100
AcDbEntity
8
0
100
AcDbLine
10
-102.00000000000001
20
1000
30
0
11
-108
21
1000
31
0
0
LINE
5
152
100
AcDbEntity
8
0
100
AcDbLine
10
-108
20
1000
30
0
11
-108.00000000000003
21
994
31
0
0
LINE
5
153
100
AcDbEntity
8
0
100
AcDbLine
10
-108
20
994
30
0
11
-114
21
994
31
0
0
LINE
5
154
100
AcDbEntity
8
0
100
AcDbLine
10
-114
20
994
30
0
11
-114
21
1000
31
0
0
LINE
5
155
100
AcDbEntity
8
0
100
AcDbLine
10
-114
20
1000
30
0
11
-120
21
1000
31
0
0
LINE
5
156
100
AcDbEntity
8
0
100
AcDbLine
10
-120
20
1000
30
0
11
-120.00000000000001
21
994
31
0
0
LINE
5
157
100
AcDbEntity
8
0
100
AcDbLine
10
-120.00000000000001
20
994
30
0
11
-126.00000000000001
21
994
31
0
0
LINE
5
158
100
AcDbEntity
8
0
100
AcDbLine
10
-126.00000000000001
20
994
30
0
11
-126.00000000000001
21
1000
31
0
0
LINE
5
159
100
AcDbEntity
8
0
100
AcDbLine
10
-126.00000000000001
20
1000
30
0
11
-132.00000000000003
21
1000
31
0
0
LINE
5
160
100
AcDbEntity
8
0
100
AcDbLine
10
-132.00000000000003
20
1000
30
0
11
-132.00000000000003
21
994
31
0
0
LINE
5
161
100
AcDbEntity
8
0
100
AcDbLine
10
-132.00000000000003
20
994
30
0
11
-138.00000000000003
21
994
31
0
0
LINE
5
162
100
AcDbEntity
8
0
100
AcDbLine
10
-138.00000000000003
20
994
30
0
11
-138.00000000000003
21
1000
31
0
0
LINE
5
163
100
AcDbEntity
8
0
100
AcDbLine
10
-138.00000000000003
20
1000
30
0
11
-144.00000000000003
21
1000
31
0
0
LINE
5
164
100
AcDbEntity
8
0
100
AcDbLine
10
-144.00000000000003
20
1000
30
0
11
-144.00000000000003
21
994
31
0
0
LINE
5
165
100
AcDbEntity
8
0
100
AcDbLine
10
-144.00000000000003
20
994
30
0
11
-150.00000000000003
21
994
31
0
0
LINE
5
166
100
AcDbEntity
8
0
100
AcDbLine
10
-150.00000000000003
20
994
30
0
11
-150.00000000000003
21
1000
31
0
0
LINE
5
167
100
AcDbEntity
8
0
100
AcDbLine
10
-150.00000000000003
20
1000
30
0
11
-156
21
1000
31
0
0
LINE
5
168
100
AcDbEntity
8
0
100
AcDbLine
10
-156
20
1000
30
0
11
-156.00000000000003
21
994
31
0
0
LINE
5
169
100
AcDbEntity
8
0
100
AcDbLine
10
-156.00000000000003
20
994
30
0
11
-163.85044944139108
21
994
31
0
0
CIRCLE
5
170
100
AcDbEntity
8
0
100
AcDbCircle
10
-220.00000000000011
20
618
30
0
40
10
210
0
220
0
230
1
0
CIRCLE
5
171
100
AcDbEntity
8
0
100
AcDbCircle
10
-99.781905613053823
20
618
30
0
40
10
210
0
220
0
230
1
0
CIRCLE
5
172
100
AcDbEntity
8
0
100
AcDbCircle
10
-25
20
947
30
0
40
9.999999999999984
210
0
220
0
230
1
0
CIRCLE
5
173
100
AcDbEntity
8
0
100
AcDbCircle
10
-25
20
50
30
0
40
10
210
0
220
0
230
1
0
CIRCLE
5
174
100
AcDbEntity
8
0
100
AcDbCircle
10
-99.781905613053823
20
381.99999999999994
30
0
40
10
210
0
220
0
230
1
0
CIRCLE
5
175
100
AcDbEntity
8
0
100
AcDbCircle
10
-220.00000000000011
20
381.99999999999994
30
0
40
10
210
0
220
0
230
1
0
ARC
5
176
100
AcDbEntity
8
0
100
AcDbCircle
10
-325.00000000000011
20
3.9801020972288993e-14
30
0
40
162.50000000000006
210
-0
220
0
230
1
100
AcDbArc
50
0
51
60.507627324937793
0
CIRCLE
5
177
100
AcDbEntity
8
0
100
AcDbCircle
10
9.9999999999998934
20
381.99999999999994
30
0
40
10
210
0
220
0
230
1
0
CIRCLE
5
178
100
AcDbEntity
8
0
100
AcDbCircle
10
-15.000000000000107
20
500
30
0
40
3.0000000000000244
210
0
220
0
230
1
0
LINE
5
179
100
AcDbEntity
8
0
100
AcDbLine
10
34.999999999999893
20
497
30
0
11
-15.000000000000249
21
496.99999999999994
31
0
0
LINE
5
180
100
AcDbEntity
8
0
100
AcDbLine
10
66.149550558608922
20
994
30
0
11
17.499999999999929
21
790
31
0
0
LINE
5
181
100
AcDbEntity
8
0
100
AcDbLine
10
109.99999999999999
20
994
30
0
11
103.99999999999999
21
994
31
0
0
LINE
5
182
100
AcDbEntity
8
0
100
AcDbLine
10
218
20
994
30
0
11
212
21
994
31
0
0
LINE
5
183
100
AcDbEntity
8
0
100
AcDbLine
10
134
20
994
30
0
11
127.99999999999999
21
994
31
0
0
LINE
5
184
100
AcDbEntity
8
0
100
AcDbLine
10
230
20
994
30
0
11
230
21
900
31
0
0
LINE
5
185
100
AcDbEntity
8
0
100
AcDbLine
10
134
20
1000
30
0
11
133.99999999999997
21
994
31
0
0
LINE
5
186
100
AcDbEntity
8
0
100
AcDbLine
10
73.999999999999972
20
994
30
0
11
66.149550558608922
21
994
31
0
0
LINE
5
187
100
AcDbEntity
8
0
100
AcDbLine
10
145.99999999999997
20
994
30
0
11
139.99999999999997
21
994
31
0
0
LINE
5
188
100
AcDbEntity
8
0
100
AcDbLine
10
97.999999999999972
20
994
30
0
11
91.999999999999972
21
994
31
0
0
LINE
5
189
100
AcDbEntity
8
0
100
AcDbLine
10
139.99999999999997
20
994
30
0
11
139.99999999999997
21
1000
31
0
0
LINE
5
190
100
AcDbEntity
8
0
100
AcDbLine
10
85.999999999999972
20
1000
30
0
11
85.999999999999957
21
994
31
0
0
LINE
5
191
100
AcDbEntity
8
0
100
AcDbLine
10
218
20
1000
30
0
11
218
21
994
31
0
0
LINE
5
192
100
AcDbEntity
8
0
100
AcDbLine
10
122
20
994
30
0
11
116
21
994
31
0
0
LINE
5
193
100
AcDbEntity
8
0
100
AcDbLine
10
158
20
1000
30
0
11
158
21
994
31
0
0
LINE
5
194
100
AcDbEntity
8
0
100
AcDbLine
10
230
20
994
30
0
11
224
21
994
31
0
0
LINE
5
195
100
AcDbEntity
8
0
100
AcDbLine
10
170
20
1000
30
0
11
170
21
994
31
0
0
LINE
5
196
100
AcDbEntity
8
0
100
AcDbLine
10
145.99999999999997
20
1000
30
0
11
145.99999999999997
21
994
31
0
0
LINE
5
197
100
AcDbEntity
8
0
100
AcDbLine
10
175.99999999999997
20
994
30
0
11
175.99999999999997
21
1000
31
0
0
LINE
5
198
100
AcDbEntity
8
0
100
AcDbLine
10
116
20
994
30
0
11
116
21
1000
31
0
0
LINE
5
199
100
AcDbEntity
8
0
100
AcDbLine
10
158
20
994
30
0
11
152
21
994
31
0
0
LINE
5
200
100
AcDbEntity
8
0
100
AcDbLine
10
79.999999999999986
20
994
30
0
11
79.999999999999986
21
1000
31
0
0
LINE
5
201
100
AcDbEntity
8
0
100
AcDbLine
10
182
20
1000
30
0
11
182
21
994
31
0
0
LINE
5
202
100
AcDbEntity
8
0
100
AcDbLine
10
206
20
994
30
0
11
200
21
994
31
0
0
LINE
5
203
100
AcDbEntity
8
0
100
AcDbLine
10
152
20
994
30
0
11
152
21
1000
31
0
0
LINE
5
204
100
AcDbEntity
8
0
100
AcDbLine
10
194
20
994
30
0
11
187.99999999999997
21
994
31
0
0
LINE
5
205
100
AcDbEntity
8
0
100
AcDbLine
10
73.999999999999986
20
1000
30
0
11
73.999999999999972
21
994
31
0
0
LINE
5
206
100
AcDbEntity
8
0
100
AcDbLine
10
170
20
994
30
0
11
164
21
994
31
0
0
LINE
5
207
100
AcDbEntity
8
0
100
AcDbLine
10
97.999999999999972
20
1000
30
0
11
97.999999999999972
21
994
31
0
0
LINE
5
208
100
AcDbEntity
8
0
100
AcDbLine
10
91.999999999999972
20
994
30
0
11
91.999999999999972
21
1000
31
0
0
LINE
5
209
100
AcDbEntity
8
0
100
AcDbLine
10
152
20
1000
30
0
11
145.99999999999997
21
1000
31
0
0
LINE
5
210
100
AcDbEntity
8
0
100
AcDbLine
10
182
20
994
30
0
11
175.99999999999997
21
994
31
0
0
LINE
5
211
100
AcDbEntity
8
0
100
AcDbLine
10
164
20
994
30
0
11
164
21
1000
31
0
0
LINE
5
212
100
AcDbEntity
8
0
100
AcDbLine
10
206
20
1000
30
0
11
206
21
994
31
0
0
LINE
5
213
100
AcDbEntity
8
0
100
AcDbLine
10
224
20
994
30
0
11
224
21
1000
31
0
0
LINE
5
214
100
AcDbEntity
8
0
100
AcDbLine
10
110
20
1000
30
0
11
109.99999999999999
21
994
31
0
0
LINE
5
215
100
AcDbEntity
8
0
100
AcDbLine
10
230
20
0
30
0
11
230
21
100
31
0
0
LINE
5
216
100
AcDbEntity
8
0
100
AcDbLine
10
-15.000000000000249
20
496.99999999999994
30
0
11
-15.000000000000142
21
162.50000000000011
31
0
0
LINE
5
217
100
AcDbEntity
8
0
100
AcDbLine
10
164
20
1000
30
0
11
158
21
1000
31
0
0
LINE
5
218
100
AcDbEntity
8
0
100
AcDbLine
10
175.99999999999997
20
1000
30
0
11
170
21
1000
31
0
0
LINE
5
219
100
AcDbEntity
8
0
100
AcDbLine
10
224
20
1000
30
0
11
218
21
1000
31
0
0
LINE
5
220
100
AcDbEntity
8
0
100
AcDbLine
10
91.999999999999972
20
1000
30
0
11
85.999999999999972
21
1000
31
0
0
LINE
5
221
100
AcDbEntity
8
0
100
AcDbLine
10
200
20
1000
30
0
11
194
21
1000
31
0
0
LINE
5
222
100
AcDbEntity
8
0
100
AcDbLine
10
79.999999999999986
20
1000
30
0
11
73.999999999999986
21
1000
31
0
0
LINE
5
223
100
AcDbEntity
8
0
100
AcDbLine
10
187.99999999999997
20
1000
30
0
11
182
21
1000
31
0
0
LINE
5
224
100
AcDbEntity
8
0
100
AcDbLine
10
212
20
1000
30
0
11
206
21
1000
31
0
0
LINE
5
225
100
AcDbEntity
8
0
100
AcDbLine
10
139.99999999999997
20
1000
30
0
11
134
21
1000
31
0
0
LINE
5
226
100
AcDbEntity
8
0
100
AcDbLine
10
116
20
1000
30
0
11
110
21
1000
31
0
0
LINE
5
227
100
AcDbEntity
8
0
100
AcDbLine
10
85.999999999999972
20
994
30
0
11
79.999999999999986
21
994
31
0
0
LINE
5
228
100
AcDbEntity
8
0
100
AcDbLine
10
127.99999999999999
20
1000
30
0
11
122
21
1000
31
0
0
LINE
5
229
100
AcDbEntity
8
0
100
AcDbLine
10
103.99999999999999
20
1000
30
0
11
97.999999999999972
21
1000
31
0
0
LINE
5
230
100
AcDbEntity
8
0
100
AcDbLine
10
122
20
1000
30
0
11
121.99999999999997
21
994
31
0
0
LINE
5
231
100
AcDbEntity
8
0
100
AcDbLine
10
-15.000000000000178
20
159.50000000000011
30
0
11
-15.000000000000178
21
141.44345159815651
31
0
0
ARC
5
232
100
AcDbEntity
8
0
100
AcDbCircle
10
-95.000000000000142
20
3.9801020972288993e-14
30
0
40
162.50000000000006
210
0
220
0
230
1
100
AcDbArc
50
0
51
60.507627324937772
0
CIRCLE
5
233
100
AcDbEntity
8
0
100
AcDbCircle
10
205
20
947
30
0
40
9.999999999999984
210
0
220
0
230
1
0
LINE
5
234
100
AcDbEntity
8
0
100
AcDbLine
10
67.499999999999929
20
1.9900510486144496e-14
30
0
11
230
21
0
31
0
0
LINE
5
235
100
AcDbEntity
8
0
100
AcDbLine
10
-15.000000000000142
20
165.50000000000011
30
0
11
84.999999999999858
21
165.50000000000011
31
0
0
LINE
5
236
100
AcDbEntity
8
0
100
AcDbLine
10
84.999999999999858
20
165.50000000000011
30
0
11
84.999999999999858
21
159.50000000000011
31
0
0
CIRCLE
5
237
100
AcDbEntity
8
0
100
AcDbCircle
10
9.9999999999998934
20
618
30
0
40
10
210
0
220
0
230
1
0
LINE
5
238
100
AcDbEntity
8
0
100
AcDbLine
10
-15.000000000000071
20
790
30
0
11
-15.000000000000107
21
500
31
0
0
LINE
5
239
100
AcDbEntity
8
0
100
AcDbLine
10
-15.000000000000107
20
503.00000000000006
30
0
11
34.999999999999893
21
503.00000000000006
31
0
0
CIRCLE
5
240
100
AcDbEntity
8
0
100
AcDbCircle
10
205
20
50
30
0
40
10
210
0
220
0
230
1
0
CIRCLE
5
241
100
AcDbEntity
8
0
100
AcDbCircle
10
130.21809438694618
20
618
30
0
40
10
210
0
220
0
230
1
0
LINE
5
242
100
AcDbEntity
8
0
100
AcDbLine
10
34.999999999999893
20
503.00000000000006
30
0
11
34.999999999999893
21
497
31
0
0
CIRCLE
5
243
100
AcDbEntity
8
0
100
AcDbCircle
10
130.21809438694618
20
381.99999999999994
30
0
40
10
210
0
220
0
230
1
0
LINE
5
244
100
AcDbEntity
8
0
100
AcDbLine
10
84.999999999999858
20
159.50000000000011
30
0
11
-15.000000000000178
21
159.50000000000011
31
0
0
CIRCLE
5
245
100
AcDbEntity
8
0
100
AcDbCircle
10
-15.000000000000142
20
162.50000000000011
30
0
40
2.9999999999999929
210
0
220
0
230
1
0
LINE
5
246
100
AcDbEntity
8
0
100
AcDbLine
10
-15.000000000000178
20
2.9976021664879227e-14
30
0
11
-20.000000000000178
21
2.9976021664879227e-14
31
0
0
SPLINE
5
247
100
AcDbEntity
8
0
100
AcDbSpline
70
4
71
5
72
21
73
15
74
0
42
0.000000001
43
0.0000000001
44
0.0000000001
40
0
40
0
40
0
40
0
40
0
40
0
40
0.10000000000000001
40
0.20000000000000001
40
0.30000000000000004
40
0.40000000000000002
40
0.5
40
0.59999999999999998
40
0.69999999999999996
40
0.79999999999999993
40
0.89999999999999991
40
1
40
1
40
1
40
1
40
1
40
1
41
1
41
1
41
1
41
1
41
1
41
1
41
1
41
1
41
1
41
1
41
1
41
1
41
1
41
1
41
1
10
230
20
900
30
0
10
223.74257224144077
20
883.99999999995532
30
0
10
211.77417490861041
20
851.99999999987858
30
0
10
195.46090322184185
20
803.9999999997998
30
0
10
177.04289721172876
20
739.99999999976285
30
0
10
159.95243537042569
20
659.99999999980537
30
0
10
149.32416047496986
20
579.99999999989643
30
0
10
145.68543612971112
20
500.0000000000033
30
0
10
149.32416047496164
20
420.00000000009652
30
0
10
159.95243537041097
20
340.00000000015683
30
0
10
177.04289721171142
20
260.00000000017002
30
0
10
195.46090322182744
20
196.00000000013469
30
0
10
211.77417490860171
20
148.00000000007896
30
0
10
223.74257224143761
20
116.00000000002852
30
0
10
230
20
100
30
0
0
LINE
5
248
100
AcDbEntity
8
0
100
AcDbLine
10
17.499999999999929
20
790
30
0
11
-15.000000000000071
21
790
31
0
0
LINE
5
249
100
AcDbEntity
8
0
100
AcDbLine
10
194
20
1000
30
0
11
194
21
994
31
0
0
LINE
5
250
100
AcDbEntity
8
0
100
AcDbLine
10
187.99999999999997
20
994
30
0
11
187.99999999999997
21
1000
31
0
0
LINE
5
251
100
AcDbEntity
8
0
100
AcDbLine
10
127.99999999999999
20
994
30
0
11
127.99999999999999
21
1000
31
0
0
LINE
5
252
100
AcDbEntity
8
0
100
AcDbLine
10
103.99999999999999
20
994
30
0
11
103.99999999999999
21
1000
31
0
0
LINE
5
253
100
AcDbEntity
8
0
100
AcDbLine
10
200
20
994
30
0
11
200
21
1000
31
0
0
LINE
5
254
100
AcDbEntity
8
0
100
AcDbLine
10
212
20
994
30
0
11
212
21
1000
31
0
0
CIRCLE
5
255
100
AcDbEntity
8
0
100
AcDbCircle
10
239.99999999999989
20
381.99999999999994
30
0
40
10
210
0
220
0
230
1
0
CIRCLE
5
256
100
AcDbEntity
8
0
100
AcDbCircle
10
214.99999999999989
20
500
30
0
40
3.0000000000000244
210
0
220
0
230
1
0
LINE
5
257
100
AcDbEntity
8
0
100
AcDbLine
10
264.99999999999989
20
497
30
0
11
214.99999999999974
21
496.99999999999994
31
0
0
LINE
5
258
100
AcDbEntity
8
0
100
AcDbLine
10
296.14955055860895
20
994
30
0
11
247.49999999999994
21
790
31
0
0
LINE
5
259
100
AcDbEntity
8
0
100
AcDbLine
10
340
20
994
30
0
11
334
21
994
31
0
0
LINE
5
260
100
AcDbEntity
8
0
100
AcDbLine
10
448
20
994
30
0
11
442
21
994
31
0
0
LINE
5
261
100
AcDbEntity
8
0
100
AcDbLine
10
364
20
994
30
0
11
358
21
994
31
0
0
LINE
5
262
100
AcDbEntity
8
0
100
AcDbLine
10
460
20
994
30
0
11
460
21
900
31
0
0
LINE
5
263
100
AcDbEntity
8
0
100
AcDbLine
10
364
20
1000
30
0
11
364
21
994
31
0
0
LINE
5
264
100
AcDbEntity
8
0
100
AcDbLine
10
304
20
994
30
0
11
296.14955055860895
21
994
31
0
0
LINE
5
265
100
AcDbEntity
8
0
100
AcDbLine
10
375.99999999999994
20
994
30
0
11
370
21
994
31
0
0
LINE
5
266
100
AcDbEntity
8
0
100
AcDbLine
10
328
20
994
30
0
11
321.99999999999994
21
994
31
0
0
LINE
5
267
100
AcDbEntity
8
0
100
AcDbLine
10
370
20
994
30
0
11
370
21
1000
31
0
0
LINE
5
268
100
AcDbEntity
8
0
100
AcDbLine
10
316
20
1000
30
0
11
315.99999999999994
21
994
31
0
0
LINE
5
269
100
AcDbEntity
8
0
100
AcDbLine
10
448
20
1000
30
0
11
448
21
994
31
0
0
LINE
5
270
100
AcDbEntity
8
0
100
AcDbLine
10
352
20
994
30
0
11
346
21
994
31
0
0
LINE
5
271
100
AcDbEntity
8
0
100
AcDbLine
10
388
20
1000
30
0
11
388
21
994
31
0
0
LINE
5
272
100
AcDbEntity
8
0
100
AcDbLine
10
460
20
994
30
0
11
454
21
994
31
0
0
LINE
5
273
100
AcDbEntity
8
0
100
AcDbLine
10
400
20
1000
30
0
11
400
21
994
31
0
0
LINE
5
274
100
AcDbEntity
8
0
100
AcDbLine
10
375.99999999999994
20
1000
30
0
11
375.99999999999994
21
994
31
0
0
LINE
5
275
100
AcDbEntity
8
0
100
AcDbLine
10
406
20
994
30
0
11
406
21
1000
31
0
0
LINE
5
276
100
AcDbEntity
8
0
100
AcDbLine
10
346
20
994
30
0
11
346
21
1000
31
0
0
LINE
5
277
100
AcDbEntity
8
0
100
AcDbLine
10
388
20
994
30
0
11
381.99999999999994
21
994
31
0
0
LINE
5
278
100
AcDbEntity
8
0
100
AcDbLine
10
310
20
994
30
0
11
310
21
1000
31
0
0
LINE
5
279
100
AcDbEntity
8
0
100
AcDbLine
10
412
20
1000
30
0
11
412
21
994
31
0
0
LINE
5
280
100
AcDbEntity
8
0
100
AcDbLine
10
436
20
994
30
0
11
430
21
994
31
0
0
LINE
5
281
100
AcDbEntity
8
0
100
AcDbLine
10
381.99999999999994
20
994
30
0
11
381.99999999999994
21
1000
31
0
0
LINE
5
282
100
AcDbEntity
8
0
100
AcDbLine
10
424
20
994
30
0
11
418
21
994
31
0
0
LINE
5
283
100
AcDbEntity
8
0
100
AcDbLine
10
304
20
1000
30
0
11
304
21
994
31
0
0
LINE
5
284
100
AcDbEntity
8
0
100
AcDbLine
10
400
20
994
30
0
11
394
21
994
31
0
0
LINE
5
285
100
AcDbEntity
8
0
100
AcDbLine
10
328
20
1000
30
0
11
328
21
994
31
0
0
LINE
5
286
100
AcDbEntity
8
0
100
AcDbLine
10
321.99999999999994
20
994
30
0
11
321.99999999999994
21
1000
31
0
0
LINE
5
287
100
AcDbEntity
8
0
100
AcDbLine
10
381.99999999999994
20
1000
30
0
11
375.99999999999994
21
1000
31
0
0
LINE
5
288
100
AcDbEntity
8
0
100
AcDbLine
10
412
20
994
30
0
11
406
21
994
31
0
0
LINE
5
289
100
AcDbEntity
8
0
100
AcDbLine
10
394
20
994
30
0
11
394
21
1000
31
0
0
LINE
5
290
100
AcDbEntity
8
0
100
AcDbLine
10
436
20
1000
30
0
11
436
21
994
31
0
0
LINE
5
291
100
AcDbEntity
8
0
100
AcDbLine
10
454
20
994
30
0
11
454
21
1000
31
0
0
LINE
5
292
100
AcDbEntity
8
0
100
AcDbLine
10
340
20
1000
30
0
11
340
21
994
31
0
0
LINE
5
293
100
AcDbEntity
8
0
100
AcDbLine
10
460
20
0
30
0
11
460
21
100
31
0
0
LINE
5
294
100
AcDbEntity
8
0
100
AcDbLine
10
214.99999999999974
20
496.99999999999994
30
0
11
214.99999999999986
21
162.50000000000011
31
0
0
LINE
5
295
100
AcDbEntity
8
0
100
AcDbLine
10
394
20
1000
30
0
11
388
21
1000
31
0
0
LINE
5
296
100
AcDbEntity
8
0
100
AcDbLine
10
406
20
1000
30
0
11
400
21
1000
31
0
0
LINE
5
297
100
AcDbEntity
8
0
100
AcDbLine
10
454
20
1000
30
0
11
448
21
1000
31
0
0
LINE
5
298
100
AcDbEntity
8
0
100
AcDbLine
10
321.99999999999994
20
1000
30
0
11
316
21
1000
31
0
0
LINE
5
299
100
AcDbEntity
8
0
100
AcDbLine
10
430
20
1000
30
0
11
424
21
1000
31
0
0
LINE
5
300
100
AcDbEntity
8
0
100
AcDbLine
10
310
20
1000
30
0
11
304
21
1000
31
0
0
LINE
5
301
100
AcDbEntity
8
0
100
AcDbLine
10
418
20
1000
30
0
11
412
21
1000
31
0
0
LINE
5
302
100
AcDbEntity
8
0
100
AcDbLine
10
442
20
1000
30
0
11
436
21
1000
31
0
0
LINE
5
303
100
AcDbEntity
8
0
100
AcDbLine
10
370
20
1000
30
0
11
364
21
1000
31
0
0
LINE
5
304
100
AcDbEntity
8
0
100
AcDbLine
10
346
20
1000
30
0
11
340
21
1000
31
0
0
LINE
5
305
100
AcDbEntity
8
0
100
AcDbLine
10
316
20
994
30
0
11
310
21
994
31
0
0
LINE
5
306
100
AcDbEntity
8
0
100
AcDbLine
10
358
20
1000
30
0
11
352
21
1000
31
0
0
LINE
5
307
100
AcDbEntity
8
0
100
AcDbLine
10
334
20
1000
30
0
11
328
21
1000
31
0
0
LINE
5
308
100
AcDbEntity
8
0
100
AcDbLine
10
352
20
1000
30
0
11
351.99999999999994
21
994
31
0
0
LINE
5
309
100
AcDbEntity
8
0
100
AcDbLine
10
214.99999999999983
20
159.50000000000011
30
0
11
214.99999999999983
21
141.44345159815651
31
0
0
ARC
5
310
100
AcDbEntity
8
0
100
AcDbCircle
10
134.99999999999986
20
3.9801020972288993e-14
30
0
40
162.50000000000006
210
0
220
0
230
1
100
AcDbArc
50
0
51
60.507627324937772
0
CIRCLE
5
311
100
AcDbEntity
8
0
100
AcDbCircle
10
435
20
947
30
0
40
9.999999999999984
210
0
220
0
230
1
0
LINE
5
312
100
AcDbEntity
8
0
100
AcDbLine
10
297.49999999999994
20
1.9900510486144496e-14
30
0
11
460
21
0
31
0
0
LINE
5
313
100
AcDbEntity
8
0
100
AcDbLine
10
214.99999999999986
20
165.50000000000011
30
0
11
314.99999999999989
21
165.50000000000011
31
0
0
LINE
5
314
100
AcDbEntity
8
0
100
AcDbLine
10
314.99999999999989
20
165.50000000000011
30
0
11
314.99999999999989
21
159.50000000000011
31
0
0
CIRCLE
5
315
100
AcDbEntity
8
0
100
AcDbCircle
10
239.99999999999989
20
618
30
0
40
10
210
0
220
0
230
1
0
LINE
5
316
100
AcDbEntity
8
0
100
AcDbLine
10
214.99999999999994
20
790
30
0
11
214.99999999999989
21
500
31
0
0
LINE
5
317
100
AcDbEntity
8
0
100
AcDbLine
10
214.99999999999989
20
503.00000000000006
30
0
11
264.99999999999989
21
503.00000000000006
31
0
0
CIRCLE
5
318
100
AcDbEntity
8
0
100
AcDbCircle
10
435
20
50
30
0
40
10
210
0
220
0
230
1
0
CIRCLE
5
319
100
AcDbEntity
8
0
100
AcDbCircle
10
360.21809438694618
20
618
30
0
40
10
210
0
220
0
230
1
0
LINE
5
320
100
AcDbEntity
8
0
100
AcDbLine
10
264.99999999999989
20
503.00000000000006
30
0
11
264.99999999999989
21
497
31
0
0
CIRCLE
5
321
100
AcDbEntity
8
0
100
AcDbCircle
10
360.21809438694618
20
381.99999999999994
30
0
40
10
210
0
220
0
230
1
0
LINE
5
322
100
AcDbEntity
8
0
100
AcDbLine
10
314.99999999999989
20
159.50000000000011
30
0
11
214.99999999999983
21
159.50000000000011
31
0
0
CIRCLE
5
323
100
AcDbEntity
8
0
100
AcDbCircle
10
214.99999999999986
20
162.50000000000011
30
0
40
2.9999999999999929
210
0
220
0
230
1
0
LINE
5
324
100
AcDbEntity
8
0
100
AcDbLine
10
214.99999999999983
20
2.9976021664879227e-14
30
0
11
209.99999999999983
21
2.9976021664879227e-14
31
0
0
SPLINE
5
325
100
AcDbEntity
8
0
100
AcDbSpline
70
4
71
5
72
21
73
15
74
0
42
0.000000001
43
0.0000000001
44
0.0000000001
40
0
40
0
40
0
40
0
40
0
40
0
40
0.10000000000000001
40
0.20000000000000001
40
0.30000000000000004
40
0.40000000000000002
40
0.5
40
0.59999999999999998
40
0.69999999999999996
40
0.79999999999999993
40
0.89999999999999991
40
1
40
1
40
1
40
1
40
1
40
1
41
1
41
1
41
1
41
1
41
1
41
1
41
1
41
1
41
1
41
1
41
1
41
1
41
1
41
1
41
1
10
460
20
900
30
0
10
453.74257224144071
20
883.99999999995532
30
0
10
441.77417490861041
20
851.99999999987858
30
0
10
425.46090322184182
20
803.9999999997998
30
0
10
407.04289721172876
20
739.99999999976285
30
0
10
389.95243537042569
20
659.99999999980537
30
0
10
379.32416047496986
20
579.99999999989643
30
0
10
375.68543612971109
20
500.0000000000033
30
0
10
379.32416047496162
20
420.00000000009652
30
0
10
389.95243537041097
20
340.00000000015683
30
0
10
407.04289721171142
20
260.00000000017002
30
0
10
425.46090322182744
20
196.00000000013469
30
0
10
441.77417490860171
20
148.00000000007896
30
0
10
453.74257224143764
20
116.00000000002852
30
0
10
460
20
100
30
0
0
LINE
5
326
100
AcDbEntity
8
0
100
AcDbLine
10
247.49999999999994
20
790
30
0
11
214.99999999999994
21
790
31
0
0
LINE
5
327
100
AcDbEntity
8
0
100
AcDbLine
10
424
20
1000
30
0
11
424
21
994
31
0
0
LINE
5
328
100
AcDbEntity
8
0
100
AcDbLine
10
418
20
994
30
0
11
418
21
1000
31
0
0
LINE
5
329
100
AcDbEntity
8
0
100
AcDbLine
10
358
20
994
30
0
11
358
21
1000
31
0
0
LINE
5
330
100
AcDbEntity
8
0
100
AcDbLine
10
334
20
994
30
0
11
334
21
1000
31
0
0
LINE
5
331
100
AcDbEntity
8
0
100
AcDbLine
10
430
20
994
30
0
11
430
21
1000
31
0
0
LINE
5
332
100
AcDbEntity
8
0
100
AcDbLine
10
442
20
994
30
0
11
442
21
1000
31
0
0
ENDSEC
0
SECTION
2
OBJECTS
0
DICTIONARY
5
C
100
AcDbDictionary
3
ACAD_GROUP
350
D
3
ACAD_MLINESTYLE
350
17
0
DICTIONARY
5
D
100
AcDbDictionary
0
DICTIONARY
5
1A
330
C
100
AcDbDictionary
0
DICTIONARY
5
17
100
AcDbDictionary
0
ENDSEC
0
EOF
