0
SECTION
2
HEADER
9
$INSUNITS
70
4
9
$ACADVER
1
AC1014
9
$HANDSEED
5
FFFF
0
ENDSEC
0
SECTION
2
TABLES
0
TABLE
2
VPORT
5
8
100
AcDbSymbolTable
0
ENDTAB
0
TABLE
2
LTYPE
5
5
100
AcDbSymbolTable
0
LTYPE
5
14
100
AcDbSymbolTableRecord
100
AcDbLinetypeTableRecord
2
BYBLOCK
70
0
0
LTYPE
5
15
100
AcDbSymbolTableRecord
100
AcDbLinetypeTableRecord
2
BYLAYER
70
0
0
ENDTAB
0
TABLE
2
LAYER
5
2
100
AcDbSymbolTable
70
2
0
LAYER
5
50
100
AcDbSymbolTableRecord
100
AcDbLayerTableRecord
2
0
70
0
6
CONTINUOUS
0
ENDTAB
0
TABLE
2
STYLE
5
3
100
AcDbSymbolTable
70
1
0
STYLE
5
11
100
AcDbSymbolTableRecord
100
AcDbTextStyleTableRecord
2
STANDARD
70
0
0
ENDTAB
0
TABLE
2
VIEW
5
6
100
AcDbSymbolTable
70
0
0
ENDTAB
0
TABLE
2
UCS
5
7
100
AcDbSymbolTable
70
0
0
ENDTAB
0
TABLE
2
APPID
5
9
100
AcDbSymbolTable
70
2
0
APPID
5
12
100
AcDbSymbolTableRecord
100
AcDbRegAppTableRecord
2
ACAD
70
0
0
ENDTAB
0
TABLE
2
DIMSTYLE
5
A
100
AcDbSymbolTable
70
1
0
ENDTAB
0
TABLE
2
BLOCK_RECORD
5
1
100
AcDbSymbolTable
70
1
0
BLOCK_RECORD
5
1F
100
AcDbSymbolTableRecord
100
AcDbBlockTableRecord
2
*MODEL_SPACE
0
BLOCK_RECORD
5
1B
100
AcDbSymbolTableRecord
100
AcDbBlockTableRecord
2
*PAPER_SPACE
0
ENDTAB
0
ENDSEC
0
SECTION
2
BLOCKS
0
BLOCK
5
20
100
AcDbEntity
100
AcDbBlockBegin
2
*MODEL_SPACE
0
ENDBLK
5
21
100
AcDbEntity
100
AcDbBlockEnd
0
BLOCK
5
1C
100
AcDbEntity
100
AcDbBlockBegin
2
*PAPER_SPACE
0
ENDBLK
5
1D
100
AcDbEntity
100
AcDbBlockEnd
0
ENDSEC
0
SECTION
2
ENTITIES
0
CIRCLE
5
100
100
AcDbEntity
8
0
100
AcDbCircle
10
0
20
0
30
0
40
325
210
0
220
0
230
1
0
LINE
5
101
100
AcDbEntity
8
0
100
AcDbLine
10
0
20
325
30
0
11
0
21
304.99999999999994
31
0
0
CIRCLE
5
102
100
AcDbEntity
8
0
100
AcDbCircle
10
0
20
315
30
0
40
2.5000000000000111
210
0
220
0
230
1
0
CIRCLE
5
103
100
AcDbEntity
8
0
100
AcDbCircle
10
-222.73863607376251
20
222.73863607376245
30
0
40
2.5000000000000111
210
0
220
0
230
1
0
CIRCLE
5
104
100
AcDbEntity
8
0
100
AcDbCircle
10
-315.00000000000006
20
-6.9944050551384862e-14
30
0
40
2.5000000000000111
210
0
220
0
230
1
0
CIRCLE
5
105
100
AcDbEntity
8
0
100
AcDbCircle
10
-222.73863607376254
20
-222.73863607376245
30
0
40
2.5000000000000111
210
0
220
0
230
1
0
CIRCLE
5
106
100
AcDbEntity
8
0
100
AcDbCircle
10
-3.8576374173141628e-14
20
-315
30
0
40
2.5000000000000111
210
0
220
0
230
1
0
CIRCLE
5
107
100
AcDbEntity
8
0
100
AcDbCircle
10
222.73863607376245
20
-222.73863607376245
30
0
40
2.5000000000000111
210
0
220
0
230
1
0
CIRCLE
5
108
100
AcDbEntity
8
0
100
AcDbCircle
10
315
20
-6.9944050551384862e-14
30
0
40
2.5000000000000111
210
0
220
0
230
1
0
CIRCLE
5
109
100
AcDbEntity
8
0
100
AcDbCircle
10
222.73863607376254
20
222.73863607376242
30
0
40
2.5000000000000111
210
0
220
0
230
1
0
LWPOLYLINE
5
110
100
AcDbEntity
8
0
100
AcDbPolyline
90
5
70
1
43
0.0
10
-119.30437632692978
20
295.86562116819573
10
-122.07601492446365
20
294.71757087110046
10
-124.84765352199751
20
293.5695205740052
10
-122.55155292780699
20
288.02624337893741
10
-117.00827573273926
20
290.322343973128
0
LWPOLYLINE
5
111
100
AcDbEntity
8
0
100
AcDbPolyline
90
5
70
1
43
0.0
10
-117.95935173942593
20
276.939688988802
10
-120.25545233361643
20
282.48296618386979
10
-117.48381373608257
20
283.63101648096506
10
-114.7121751385487
20
284.77906677806027
10
-112.4160745443582
20
279.23578958299254
0
LWPOLYLINE
5
112
100
AcDbEntity
8
0
100
AcDbPolyline
90
5
70
1
43
0.0
10
-113.36715055104486
20
265.8531345986666
10
-115.66325114523538
20
271.39641179373433
10
-112.89161254770151
20
272.5444620908296
10
-110.11997395016765
20
273.69251238792486
10
-107.82387335597713
20
268.14923519285713
0
LWPOLYLINE
5
113
100
AcDbEntity
8
0
100
AcDbPolyline
90
5
70
1
43
0.0
10
-108.77494936266379
20
254.76658020853114
10
-111.07104995685431
20
260.30985740359893
10
-108.29941135932044
20
261.45790770069419
10
-105.52777276178658
20
262.60595799778946
10
-103.23167216759606
20
257.06268080272173
0
LWPOLYLINE
5
114
100
AcDbEntity
8
0
100
AcDbPolyline
90
5
70
1
43
0.0
10
-104.18274817428271
20
243.68002581839573
10
-106.47884876847323
20
249.22330301346349
10
-103.70721017093936
20
250.37135331055876
10
-100.9355715734055
20
251.519403607654
10
-98.639470979214977
20
245.97612641258627
0
LWPOLYLINE
5
115
100
AcDbEntity
8
0
100
AcDbPolyline
90
5
70
1
43
0.0
10
-99.590546985901653
20
232.5934714282603
10
-101.88664758009217
20
238.13674862332806
10
-99.115008982558308
20
239.28479892042333
10
-96.343370385024443
20
240.43284921751859
10
-94.047269790833923
20
234.88957202245086
0
LWPOLYLINE
5
116
100
AcDbEntity
8
0
100
AcDbPolyline
90
5
70
1
43
0.0
10
-94.998345797520585
20
221.50691703812487
10
-97.294446391711091
20
227.05019423319266
10
-94.522807794177226
20
228.19824453028789
10
-91.75116919664336
20
229.34629482738316
10
-89.455068602452855
20
223.80301763231543
0
LWPOLYLINE
5
117
100
AcDbEntity
8
0
100
AcDbPolyline
90
5
70
1
43
0.0
10
-90.406144609139503
20
210.42036264798946
10
-92.702245203330023
20
215.96363984305722
10
-89.930606605796157
20
217.11169014015246
10
-87.158968008262292
20
218.25974043724773
10
-84.862867414071772
20
212.71646324218
0
LWPOLYLINE
5
118
100
AcDbEntity
8
0
100
AcDbPolyline
90
5
70
1
43
0.0
10
-85.813943420758449
20
199.333808257854
10
-88.110044014948969
20
204.87708545292179
10
-85.338405417415103
20
206.025135750017
10
-82.566766819881238
20
207.17318604711232
10
-80.270666225690718
20
201.62990885204459
0
LWPOLYLINE
5
119
100
AcDbEntity
8
0
100
AcDbPolyline
90
5
70
1
43
0.0
10
-81.221742232377366
20
188.2472538677186
10
-83.517842826567886
20
193.79053106278633
10
-80.746204229034021
20
194.93858135988162
10
-77.974565631500155
20
196.08663165697686
10
-75.678465037309635
20
190.54335446190913
0
LWPOLYLINE
5
120
100
AcDbEntity
8
0
100
AcDbPolyline
90
5
70
1
43
0.0
10
-76.629541043996298
20
177.16069947758314
10
-78.925641638186818
20
182.70397667265092
10
-76.154003040652952
20
183.85202696974616
10
-73.382364443119087
20
185.00007726684146
10
-71.086263848928567
20
179.45680007177373
0
LWPOLYLINE
5
121
100
AcDbEntity
8
0
100
AcDbPolyline
90
5
70
1
43
0.0
10
-72.037339855615244
20
166.07414508744773
10
-74.333440449805749
20
171.61742228251546
10
-71.561801852271884
20
172.76547257961079
10
-68.790163254738019
20
173.913522876706
10
-66.494062660547513
20
168.37024568163827
0
LWPOLYLINE
5
122
100
AcDbEntity
8
0
100
AcDbPolyline
90
5
70
1
43
0.0
10
-67.445138667234161
20
154.9875906973123
10
-69.741239261424681
20
160.53086789238009
10
-66.969600663890816
20
161.67891818947533
10
-64.197962066356951
20
162.82696848657059
10
-61.901861472166431
20
157.28369129150286
0
LWPOLYLINE
5
123
100
AcDbEntity
8
0
100
AcDbPolyline
90
5
70
1
43
0.0
10
-260.30985740359893
20
-111.07104995685438
10
-261.45790770069419
20
-108.29941135932052
10
-262.60595799778946
20
-105.52777276178665
10
-257.06268080272173
20
-103.23167216759613
10
-254.7665802085312
20
-108.77494936266386
0
LWPOLYLINE
5
124
100
AcDbEntity
8
0
100
AcDbPolyline
90
5
70
1
43
0.0
10
-243.68002581839576
20
-104.18274817428278
10
-245.97612641258632
20
-98.639470979215048
10
-251.51940360765406
20
-100.93557157340557
10
-250.37135331055879
20
-103.70721017093943
10
-249.22330301346352
20
-106.4788487684733
0
LWPOLYLINE
5
125
100
AcDbEntity
8
0
100
AcDbPolyline
90
5
70
1
43
0.0
10
-188.2472538677186
20
-81.221742232377423
10
-190.54335446190916
20
-75.678465037309707
10
-196.08663165697689
20
-77.974565631500226
10
-194.93858135988162
20
-80.746204229034078
10
-193.79053106278633
20
-83.517842826567943
0
LWPOLYLINE
5
126
100
AcDbEntity
8
0
100
AcDbPolyline
90
5
70
1
43
0.0
10
-168.37024568163829
20
-66.494062660547556
10
-173.91352287670603
20
-68.790163254738076
10
-172.76547257961082
20
-71.561801852271941
10
-171.61742228251552
20
-74.333440449805806
10
-166.07414508744779
20
-72.037339855615286
0
LWPOLYLINE
5
127
100
AcDbEntity
8
0
100
AcDbPolyline
90
5
70
1
43
0.0
10
-154.98759069731233
20
-67.445138667234218
10
-160.53086789238012
20
-69.741239261424738
10
-161.67891818947535
20
-66.969600663890873
10
-162.82696848657065
20
-64.197962066357007
10
-157.28369129150286
20
-61.901861472166487
0
LWPOLYLINE
5
128
100
AcDbEntity
8
0
100
AcDbPolyline
90
5
70
1
43
0.0
10
-223.80301763231543
20
-89.455068602452911
10
-229.34629482738316
20
-91.751169196643446
10
-228.19824453028789
20
-94.522807794177311
10
-227.05019423319266
20
-97.294446391711176
10
-221.50691703812487
20
-94.998345797520642
0
LWPOLYLINE
5
129
100
AcDbEntity
8
0
100
AcDbPolyline
90
5
70
1
43
0.0
10
-215.96363984305722
20
-92.702245203330094
10
-217.11169014015246
20
-89.930606605796228
10
-218.25974043724773
20
-87.158968008262363
10
-212.71646324218
20
-84.862867414071843
10
-210.42036264798946
20
-90.406144609139574
0
LWPOLYLINE
5
130
100
AcDbEntity
8
0
100
AcDbPolyline
90
5
70
1
43
0.0
10
-177.16069947758317
20
-76.629541043996355
10
-182.70397667265098
20
-78.925641638186889
10
-183.85202696974619
20
-76.154003040653024
10
-185.00007726684149
20
-73.382364443119158
10
-179.45680007177376
20
-71.086263848928624
0
LWPOLYLINE
5
131
100
AcDbEntity
8
0
100
AcDbPolyline
90
5
70
1
43
0.0
10
-207.17318604711232
20
-82.566766819881309
10
-206.025135750017
20
-85.338405417415174
10
-204.87708545292179
20
-88.11004401494904
10
-199.333808257854
20
-85.813943420758505
10
-201.62990885204459
20
-80.270666225690789
0
LWPOLYLINE
5
132
100
AcDbEntity
8
0
100
AcDbPolyline
90
5
70
1
43
0.0
10
-238.13674862332806
20
-101.88664758009224
10
-239.28479892042333
20
-99.115008982558379
10
-240.43284921751862
20
-96.343370385024514
10
-234.88957202245086
20
-94.047269790833994
10
-232.5934714282603
20
-99.590546985901724
0
LWPOLYLINE
5
133
100
AcDbEntity
8
0
100
AcDbPolyline
90
5
70
1
43
0.0
10
-265.8531345986666
20
-113.36715055104493
10
-271.39641179373439
20
-115.66325114523545
10
-272.54446209082965
20
-112.89161254770158
10
-273.69251238792492
20
-110.11997395016772
10
-268.14923519285719
20
-107.8238733559772
0
LWPOLYLINE
5
134
100
AcDbEntity
8
0
100
AcDbPolyline
90
5
70
1
43
0.0
10
-276.93968898880206
20
-117.95935173942598
10
-282.48296618386979
20
-120.25545233361655
10
-283.63101648096506
20
-117.48381373608267
10
-284.77906677806033
20
-114.7121751385488
10
-279.2357895829926
20
-112.41607454435825
0
LWPOLYLINE
5
135
100
AcDbEntity
8
0
100
AcDbPolyline
90
5
70
1
43
0.0
10
-288.02624337893747
20
-122.55155292780711
10
-293.56952057400525
20
-124.84765352199761
10
-294.71757087110052
20
-122.07601492446375
10
-295.86562116819573
20
-119.30437632692987
10
-290.322343973128
20
-117.00827573273935
0
LWPOLYLINE
5
136
100
AcDbEntity
8
0
100
AcDbPolyline
90
5
70
1
43
0.0
10
111.07104995685427
20
-260.30985740359893
10
108.2994113593204
20
-261.45790770069419
10
105.52777276178654
20
-262.60595799778946
10
103.23167216759602
20
-257.06268080272173
10
108.77494936266375
20
-254.76658020853114
0
LWPOLYLINE
5
137
100
AcDbEntity
8
0
100
AcDbPolyline
90
5
70
1
43
0.0
10
104.18274817428268
20
-243.68002581839573
10
98.639470979214948
20
-245.97612641258627
10
100.93557157340547
20
-251.519403607654
10
103.70721017093933
20
-250.37135331055876
10
106.4788487684732
20
-249.22330301346349
0
LWPOLYLINE
5
138
100
AcDbEntity
8
0
100
AcDbPolyline
90
5
70
1
43
0.0
10
81.221742232377352
20
-188.2472538677186
10
75.678465037309607
20
-190.54335446190913
10
77.974565631500127
20
-196.08663165697686
10
80.746204229034007
20
-194.93858135988162
10
83.517842826567872
20
-193.79053106278633
0
LWPOLYLINE
5
139
100
AcDbEntity
8
0
100
AcDbPolyline
90
5
70
1
43
0.0
10
66.494062660547485
20
-168.37024568163827
10
68.790163254738005
20
-173.913522876706
10
71.56180185227187
20
-172.76547257961079
10
74.333440449805735
20
-171.61742228251546
10
72.037339855615215
20
-166.07414508744773
0
LWPOLYLINE
5
140
100
AcDbEntity
8
0
100
AcDbPolyline
90
5
70
1
43
0.0
10
67.445138667234147
20
-154.9875906973123
10
69.741239261424667
20
-160.53086789238009
10
66.969600663890802
20
-161.67891818947533
10
64.197962066356936
20
-162.82696848657059
10
61.901861472166416
20
-157.28369129150286
0
LWPOLYLINE
5
141
100
AcDbEntity
8
0
100
AcDbPolyline
90
5
70
1
43
0.0
10
89.455068602452812
20
-223.80301763231543
10
91.751169196643332
20
-229.34629482738316
10
94.522807794177197
20
-228.19824453028789
10
97.294446391711062
20
-227.05019423319266
10
94.998345797520543
20
-221.50691703812487
0
LWPOLYLINE
5
142
100
AcDbEntity
8
0
100
AcDbPolyline
90
5
70
1
43
0.0
10
92.702245203330008
20
-215.96363984305722
10
89.930606605796143
20
-217.11169014015246
10
87.158968008262264
20
-218.25974043724773
10
84.862867414071758
20
-212.71646324218
10
90.406144609139488
20
-210.42036264798946
0
LWPOLYLINE
5
143
100
AcDbEntity
8
0
100
AcDbPolyline
90
5
70
1
43
0.0
10
76.629541043996284
20
-177.16069947758314
10
78.925641638186789
20
-182.70397667265092
10
76.154003040652924
20
-183.85202696974616
10
73.382364443119059
20
-185.00007726684146
10
71.086263848928553
20
-179.45680007177373
0
LWPOLYLINE
5
144
100
AcDbEntity
8
0
100
AcDbPolyline
90
5
70
1
43
0.0
10
82.566766819881224
20
-207.17318604711232
10
85.338405417415089
20
-206.025135750017
10
88.110044014948954
20
-204.87708545292179
10
85.81394342075842
20
-199.333808257854
10
80.27066622569069
20
-201.62990885204459
0
LWPOLYLINE
5
145
100
AcDbEntity
8
0
100
AcDbPolyline
90
5
70
1
43
0.0
10
101.88664758009213
20
-238.13674862332806
10
99.115008982558265
20
-239.28479892042333
10
96.3433703850244
20
-240.43284921751859
10
94.047269790833894
20
-234.88957202245086
10
99.590546985901625
20
-232.5934714282603
0
LWPOLYLINE
5
146
100
AcDbEntity
8
0
100
AcDbPolyline
90
5
70
1
43
0.0
10
113.36715055104483
20
-265.8531345986666
10
115.66325114523535
20
-271.39641179373433
10
112.89161254770148
20
-272.5444620908296
10
110.11997395016762
20
-273.69251238792486
10
107.8238733559771
20
-268.14923519285713
0
LWPOLYLINE
5
147
100
AcDbEntity
8
0
100
AcDbPolyline
90
5
70
1
43
0.0
10
117.95935173942588
20
-276.939688988802
10
120.2554523336164
20
-282.48296618386979
10
117.48381373608254
20
-283.63101648096506
10
114.71217513854867
20
-284.77906677806027
10
112.41607454435815
20
-279.23578958299254
0
LWPOLYLINE
5
148
100
AcDbEntity
8
0
100
AcDbPolyline
90
5
70
1
43
0.0
10
122.55155292780697
20
-288.02624337893741
10
124.84765352199747
20
-293.5695205740052
10
122.07601492446361
20
-294.71757087110046
10
119.30437632692974
20
-295.86562116819573
10
117.00827573273924
20
-290.322343973128
0
LWPOLYLINE
5
149
100
AcDbEntity
8
0
100
AcDbPolyline
90
5
70
1
43
0.0
10
260.30985740359893
20
111.07104995685425
10
261.45790770069419
20
108.29941135932039
10
262.60595799778946
20
105.52777276178652
10
257.06268080272173
20
103.231672167596
10
254.7665802085312
20
108.77494936266373
0
LWPOLYLINE
5
150
100
AcDbEntity
8
0
100
AcDbPolyline
90
5
70
1
43
0.0
10
243.68002581839576
20
104.18274817428266
10
245.97612641258632
20
98.639470979214934
10
251.51940360765406
20
100.93557157340544
10
250.37135331055879
20
103.70721017093931
10
249.22330301346352
20
106.47884876847317
0
LWPOLYLINE
5
151
100
AcDbEntity
8
0
100
AcDbPolyline
90
5
70
1
43
0.0
10
188.24725386771863
20
81.221742232377338
10
190.54335446190913
20
75.678465037309593
10
196.08663165697686
20
77.974565631500113
10
194.93858135988165
20
80.746204229033992
10
193.79053106278636
20
83.517842826567858
0
LWPOLYLINE
5
152
100
AcDbEntity
8
0
100
AcDbPolyline
90
5
70
1
43
0.0
10
168.37024568163827
20
66.494062660547471
10
173.913522876706
20
68.79016325473799
10
172.76547257961079
20
71.561801852271856
10
171.61742228251546
20
74.333440449805721
10
166.07414508744773
20
72.037339855615201
0
LWPOLYLINE
5
153
100
AcDbEntity
8
0
100
AcDbPolyline
90
5
70
1
43
0.0
10
154.98759069731233
20
67.445138667234119
10
160.53086789238009
20
69.741239261424653
10
161.67891818947533
20
66.969600663890787
10
162.82696848657059
20
64.197962066356922
10
157.28369129150286
20
61.901861472166395
0
LWPOLYLINE
5
154
100
AcDbEntity
8
0
100
AcDbPolyline
90
5
70
1
43
0.0
10
223.80301763231546
20
89.455068602452798
10
229.34629482738319
20
91.751169196643318
10
228.19824453028792
20
94.522807794177183
10
227.05019423319268
20
97.294446391711048
10
221.50691703812493
20
94.998345797520528
0
LWPOLYLINE
5
155
100
AcDbEntity
8
0
100
AcDbPolyline
90
5
70
1
43
0.0
10
215.96363984305725
20
92.702245203329966
10
217.11169014015252
20
89.9306066057961
10
218.25974043724779
20
87.158968008262235
10
212.71646324218005
20
84.862867414071715
10
210.42036264798949
20
90.406144609139446
0
LWPOLYLINE
5
156
100
AcDbEntity
8
0
100
AcDbPolyline
90
5
70
1
43
0.0
10
177.16069947758314
20
76.629541043996269
10
182.70397667265092
20
78.925641638186775
10
183.85202696974616
20
76.15400304065291
10
185.00007726684146
20
73.382364443119044
10
179.45680007177373
20
71.086263848928539
0
LWPOLYLINE
5
157
100
AcDbEntity
8
0
100
AcDbPolyline
90
5
70
1
43
0.0
10
207.17318604711235
20
82.566766819881181
10
206.02513575001706
20
85.338405417415046
10
204.87708545292182
20
88.110044014948912
10
199.33380825785403
20
85.813943420758406
10
201.62990885204462
20
80.270666225690661
0
LWPOLYLINE
5
158
100
AcDbEntity
8
0
100
AcDbPolyline
90
5
70
1
43
0.0
10
238.13674862332812
20
101.88664758009212
10
239.28479892042336
20
99.115008982558251
10
240.43284921751862
20
96.343370385024386
10
234.88957202245089
20
94.047269790833866
10
232.59347142826033
20
99.590546985901597
0
LWPOLYLINE
5
159
100
AcDbEntity
8
0
100
AcDbPolyline
90
5
70
1
43
0.0
10
265.8531345986666
20
113.3671505510448
10
271.39641179373439
20
115.66325114523534
10
272.54446209082965
20
112.89161254770147
10
273.69251238792492
20
110.1199739501676
10
268.14923519285719
20
107.82387335597707
0
LWPOLYLINE
5
160
100
AcDbEntity
8
0
100
AcDbPolyline
90
5
70
1
43
0.0
10
276.93968898880206
20
117.95935173942587
10
282.48296618386979
20
120.25545233361638
10
283.63101648096506
20
117.48381373608251
10
284.77906677806033
20
114.71217513854864
10
279.2357895829926
20
112.41607454435814
0
LWPOLYLINE
5
161
100
AcDbEntity
8
0
100
AcDbPolyline
90
5
70
1
43
0.0
10
288.02624337893747
20
122.55155292780692
10
293.56952057400525
20
124.84765352199744
10
294.71757087110052
20
122.07601492446358
10
295.86562116819573
20
119.30437632692971
10
290.322343973128
20
117.00827573273919
0
LWPOLYLINE
5
162
100
AcDbEntity
8
0
100
AcDbPolyline
90
6
70
1
43
0.0
10
-4.6360201221457338
20
-10.575474020600364
10
-11.476639219975141
20
-1.2728258120661418
10
-6.8406190978294044
20
9.3026482085342295
10
4.63602012214574
20
10.575474020600364
10
11.476639219975144
20
1.2728258120661395
10
6.8406190978294052
20
-9.3026482085342241
0
ENDSEC
0
SECTION
2
OBJECTS
0
DICTIONARY
5
C
100
AcDbDictionary
3
ACAD_GROUP
350
D
3
ACAD_MLINESTYLE
350
17
0
DICTIONARY
5
D
100
AcDbDictionary
0
DICTIONARY
5
1A
330
C
100
AcDbDictionary
0
DICTIONARY
5
17
100
AcDbDictionary
0
ENDSEC
0
EOF
