0
SECTION
2
HEADER
9
$INSUNITS
70
4
9
$ACADVER
1
AC1014
9
$HANDSEED
5
FFFF
0
ENDSEC
0
SECTION
2
TABLES
0
TABLE
2
VPORT
5
8
100
AcDbSymbolTable
0
ENDTAB
0
TABLE
2
LTYPE
5
5
100
AcDbSymbolTable
0
LTYPE
5
14
100
AcDbSymbolTableRecord
100
AcDbLinetypeTableRecord
2
BYBLOCK
70
0
0
LTYPE
5
15
100
AcDbSymbolTableRecord
100
AcDbLinetypeTableRecord
2
BYLAYER
70
0
0
ENDTAB
0
TABLE
2
LAYER
5
2
100
AcDbSymbolTable
70
2
0
LAYER
5
50
100
AcDbSymbolTableRecord
100
AcDbLayerTableRecord
2
0
70
0
6
CONTINUOUS
0
ENDTAB
0
TABLE
2
STYLE
5
3
100
AcDbSymbolTable
70
1
0
STYLE
5
11
100
AcDbSymbolTableRecord
100
AcDbTextStyleTableRecord
2
STANDARD
70
0
0
ENDTAB
0
TABLE
2
VIEW
5
6
100
AcDbSymbolTable
70
0
0
ENDTAB
0
TABLE
2
UCS
5
7
100
AcDbSymbolTable
70
0
0
ENDTAB
0
TABLE
2
APPID
5
9
100
AcDbSymbolTable
70
2
0
APPID
5
12
100
AcDbSymbolTableRecord
100
AcDbRegAppTableRecord
2
ACAD
70
0
0
ENDTAB
0
TABLE
2
DIMSTYLE
5
A
100
AcDbSymbolTable
70
1
0
ENDTAB
0
TABLE
2
BLOCK_RECORD
5
1
100
AcDbSymbolTable
70
1
0
BLOCK_RECORD
5
1F
100
AcDbSymbolTableRecord
100
AcDbBlockTableRecord
2
*MODEL_SPACE
0
BLOCK_RECORD
5
1B
100
AcDbSymbolTableRecord
100
AcDbBlockTableRecord
2
*PAPER_SPACE
0
ENDTAB
0
ENDSEC
0
SECTION
2
BLOCKS
0
BLOCK
5
20
100
AcDbEntity
100
AcDbBlockBegin
2
*MODEL_SPACE
0
ENDBLK
5
21
100
AcDbEntity
100
AcDbBlockEnd
0
BLOCK
5
1C
100
AcDbEntity
100
AcDbBlockBegin
2
*PAPER_SPACE
0
ENDBLK
5
1D
100
AcDbEntity
100
AcDbBlockEnd
0
ENDSEC
0
SECTION
2
ENTITIES
0
LINE
5
100
100
AcDbEntity
8
0
100
AcDbLine
10
-156
20
1000
30
0
11
-156
21
994
31
0
0
LINE
5
101
100
AcDbEntity
8
0
100
AcDbLine
10
-245.00000000000011
20
165.50000000000009
30
0
11
-145.00000000000009
21
165.50000000000009
31
0
0
LINE
5
102
100
AcDbEntity
8
0
100
AcDbLine
10
-12.000000000000002
20
1000
30
0
11
-12.000000000000002
21
994
31
0
0
LINE
5
103
100
AcDbEntity
8
0
100
AcDbLine
10
-60
20
994
30
0
11
-66.000000000000014
21
994
31
0
0
LINE
5
104
100
AcDbEntity
8
0
100
AcDbLine
10
-84.000000000000043
20
994
30
0
11
-90.000000000000014
21
994
31
0
0
LINE
5
105
100
AcDbEntity
8
0
100
AcDbLine
10
-114
20
1000
30
0
11
-120
21
1000
31
0
0
LINE
5
106
100
AcDbEntity
8
0
100
AcDbLine
10
-54.000000000000021
20
1000
30
0
11
-60
21
1000
31
0
0
LINE
5
107
100
AcDbEntity
8
0
100
AcDbLine
10
-42.000000000000021
20
994
30
0
11
-42.000000000000021
21
1000
31
0
0
CIRCLE
5
108
100
AcDbEntity
8
0
100
AcDbCircle
10
-99.781905613053823
20
382
30
0
40
10
210
0
220
0
230
1
0
LINE
5
109
100
AcDbEntity
8
0
100
AcDbLine
10
-126.00000000000001
20
994
30
0
11
-126.00000000000001
21
1000
31
0
0
LINE
5
110
100
AcDbEntity
8
0
100
AcDbLine
10
-72.000000000000014
20
1000
30
0
11
-72.000000000000014
21
994
31
0
0
CIRCLE
5
111
100
AcDbEntity
8
0
100
AcDbCircle
10
-99.781905613053823
20
618
30
0
40
10
210
0
220
0
230
1
0
LINE
5
112
100
AcDbEntity
8
0
100
AcDbLine
10
-145.00000000000009
20
165.50000000000009
30
0
11
-145.00000000000009
21
159.50000000000014
31
0
0
LINE
5
113
100
AcDbEntity
8
0
100
AcDbLine
10
-245.00000000000011
20
503.00000000000011
30
0
11
-195.00000000000011
21
503.00000000000011
31
0
0
LINE
5
114
100
AcDbEntity
8
0
100
AcDbLine
10
-156
20
994
30
0
11
-163.85044944139108
21
994
31
0
0
LINE
5
115
100
AcDbEntity
8
0
100
AcDbLine
10
-42.000000000000021
20
1000
30
0
11
-48.000000000000007
21
1000
31
0
0
LINE
5
116
100
AcDbEntity
8
0
100
AcDbLine
10
-195.00000000000011
20
503.00000000000011
30
0
11
-195.00000000000011
21
497
31
0
0
LINE
5
117
100
AcDbEntity
8
0
100
AcDbLine
10
-245.00000000000011
20
790
30
0
11
-245.00000000000011
21
503.00000000000011
31
0
0
LINE
5
118
100
AcDbEntity
8
0
100
AcDbLine
10
-30
20
1000
30
0
11
-36
21
1000
31
0
0
LINE
5
119
100
AcDbEntity
8
0
100
AcDbLine
10
-36
20
994
30
0
11
-42.000000000000021
21
994
31
0
0
LINE
5
120
100
AcDbEntity
8
0
100
AcDbLine
10
-6.0000000000000018
20
994
30
0
11
-6.0000000000000018
21
1000
31
0
0
LINE
5
121
100
AcDbEntity
8
0
100
AcDbLine
10
-90.000000000000014
20
1000
30
0
11
-96.000000000000014
21
1000
31
0
0
LINE
5
122
100
AcDbEntity
8
0
100
AcDbLine
10
-212.50000000000011
20
790
30
0
11
-245.00000000000011
21
790
31
0
0
LINE
5
123
100
AcDbEntity
8
0
100
AcDbLine
10
-90.000000000000014
20
994
30
0
11
-90.000000000000014
21
1000
31
0
0
LINE
5
124
100
AcDbEntity
8
0
100
AcDbLine
10
-6.0000000000000018
20
1000
30
0
11
-12.000000000000002
21
1000
31
0
0
LINE
5
125
100
AcDbEntity
8
0
100
AcDbLine
10
-114
20
994
30
0
11
-114
21
1000
31
0
0
LINE
5
126
100
AcDbEntity
8
0
100
AcDbLine
10
-66.000000000000014
20
1000
30
0
11
-72.000000000000014
21
1000
31
0
0
LINE
5
127
100
AcDbEntity
8
0
100
AcDbLine
10
-245.00000000000014
20
159.50000000000014
30
0
11
-245.00000000000014
21
141.44345159815654
31
0
0
LINE
5
128
100
AcDbEntity
8
0
100
AcDbLine
10
-108
20
994
30
0
11
-114
21
994
31
0
0
LINE
5
129
100
AcDbEntity
8
0
100
AcDbLine
10
-144
20
994
30
0
11
-150
21
994
31
0
0
LINE
5
130
100
AcDbEntity
8
0
100
AcDbLine
10
-245.00000000000031
20
496.99999999999994
30
0
11
-245.00000000000011
21
165.50000000000009
31
0
0
LINE
5
131
100
AcDbEntity
8
0
100
AcDbLine
10
0
20
0
30
0
11
0
21
100
31
0
0
LINE
5
132
100
AcDbEntity
8
0
100
AcDbLine
10
-66.000000000000014
20
994
30
0
11
-66.000000000000014
21
1000
31
0
0
LINE
5
133
100
AcDbEntity
8
0
100
AcDbLine
10
-150
20
994
30
0
11
-150
21
1000
31
0
0
LINE
5
134
100
AcDbEntity
8
0
100
AcDbLine
10
-48.000000000000007
20
1000
30
0
11
-48.000000000000007
21
994
31
0
0
LINE
5
135
100
AcDbEntity
8
0
100
AcDbLine
10
-54.000000000000021
20
994
30
0
11
-54.000000000000021
21
1000
31
0
0
LINE
5
136
100
AcDbEntity
8
0
100
AcDbLine
10
-30
20
994
30
0
11
-30
21
1000
31
0
0
LINE
5
137
100
AcDbEntity
8
0
100
AcDbLine
10
-144
20
1000
30
0
11
-144
21
994
31
0
0
LINE
5
138
100
AcDbEntity
8
0
100
AcDbLine
10
-132
20
1000
30
0
11
-132
21
994
31
0
0
CIRCLE
5
139
100
AcDbEntity
8
0
100
AcDbCircle
10
-220.00000000000011
20
382
30
0
40
10
210
0
220
0
230
1
0
LINE
5
140
100
AcDbEntity
8
0
100
AcDbLine
10
-150
20
1000
30
0
11
-156
21
1000
31
0
0
CIRCLE
5
141
100
AcDbEntity
8
0
100
AcDbCircle
10
-25
20
50
30
0
40
10
210
0
220
0
230
1
0
LINE
5
142
100
AcDbEntity
8
0
100
AcDbLine
10
-78.000000000000014
20
1000
30
0
11
-84.000000000000043
21
1000
31
0
0
LINE
5
143
100
AcDbEntity
8
0
100
AcDbLine
10
-108
20
1000
30
0
11
-108
21
994
31
0
0
LINE
5
144
100
AcDbEntity
8
0
100
AcDbLine
10
-162.50000000000014
20
2.0000000000000003e-14
30
0
11
0
21
0
31
0
0
LINE
5
145
100
AcDbEntity
8
0
100
AcDbLine
10
-102.00000000000001
20
994
30
0
11
-102.00000000000001
21
1000
31
0
0
CIRCLE
5
146
100
AcDbEntity
8
0
100
AcDbCircle
10
-25
20
947
30
0
40
9.999999999999984
210
0
220
0
230
1
0
LINE
5
147
100
AcDbEntity
8
0
100
AcDbLine
10
-18
20
994
30
0
11
-18
21
1000
31
0
0
LINE
5
148
100
AcDbEntity
8
0
100
AcDbLine
10
-96.000000000000057
20
994
30
0
11
-102.00000000000001
21
994
31
0
0
LINE
5
149
100
AcDbEntity
8
0
100
AcDbLine
10
-120
20
994
30
0
11
-126.00000000000001
21
994
31
0
0
LINE
5
150
100
AcDbEntity
8
0
100
AcDbLine
10
-18
20
1000
30
0
11
-24.000000000000004
21
1000
31
0
0
LINE
5
151
100
AcDbEntity
8
0
100
AcDbLine
10
-102.00000000000001
20
1000
30
0
11
-108
21
1000
31
0
0
LINE
5
152
100
AcDbEntity
8
0
100
AcDbLine
10
-132
20
994
30
0
11
-138
21
994
31
0
0
LINE
5
153
100
AcDbEntity
8
0
100
AcDbLine
10
-138
20
994
30
0
11
-138
21
1000
31
0
0
LINE
5
154
100
AcDbEntity
8
0
100
AcDbLine
10
-15.000000000000174
20
2.9999999999999998e-14
30
0
11
-20.000000000000171
21
2.9999999999999998e-14
31
0
0
LINE
5
155
100
AcDbEntity
8
0
100
AcDbLine
10
-84.000000000000043
20
1000
30
0
11
-84.000000000000043
21
994
31
0
0
LINE
5
156
100
AcDbEntity
8
0
100
AcDbLine
10
-1.0000000000000001e-15
20
994
30
0
11
-6.0000000000000018
21
994
31
0
0
LINE
5
157
100
AcDbEntity
8
0
100
AcDbLine
10
-195.00000000000011
20
497
30
0
11
-245.00000000000031
21
496.99999999999994
31
0
0
CIRCLE
5
158
100
AcDbEntity
8
0
100
AcDbCircle
10
-220.00000000000011
20
618
30
0
40
10
210
0
220
0
230
1
0
LINE
5
159
100
AcDbEntity
8
0
100
AcDbLine
10
-12.000000000000002
20
994
30
0
11
-18
21
994
31
0
0
LINE
5
160
100
AcDbEntity
8
0
100
AcDbLine
10
-1.0000000000000001e-15
20
994
30
0
11
0
21
900
31
0
0
LINE
5
161
100
AcDbEntity
8
0
100
AcDbLine
10
-120
20
1000
30
0
11
-120
21
994
31
0
0
LINE
5
162
100
AcDbEntity
8
0
100
AcDbLine
10
-126.00000000000001
20
1000
30
0
11
-132
21
1000
31
0
0
ARC
5
163
100
AcDbEntity
8
0
100
AcDbCircle
10
-325.00000000000028
20
4.0000000000000006e-14
30
0
40
162.50000000000014
210
0
220
0
230
1
100
AcDbArc
50
0
51
60.507627324937737
0
LINE
5
164
100
AcDbEntity
8
0
100
AcDbLine
10
-138
20
1000
30
0
11
-144
21
1000
31
0
0
LINE
5
165
100
AcDbEntity
8
0
100
AcDbLine
10
-60
20
1000
30
0
11
-60
21
994
31
0
0
LINE
5
166
100
AcDbEntity
8
0
100
AcDbLine
10
-24.000000000000004
20
994
30
0
11
-30
21
994
31
0
0
LINE
5
167
100
AcDbEntity
8
0
100
AcDbLine
10
-24.000000000000004
20
1000
30
0
11
-24.000000000000004
21
994
31
0
0
LINE
5
168
100
AcDbEntity
8
0
100
AcDbLine
10
-78.000000000000014
20
994
30
0
11
-78.000000000000014
21
1000
31
0
0
LINE
5
169
100
AcDbEntity
8
0
100
AcDbLine
10
-48.000000000000007
20
994
30
0
11
-54.000000000000021
21
994
31
0
0
LINE
5
170
100
AcDbEntity
8
0
100
AcDbLine
10
-72.000000000000014
20
994
30
0
11
-78.000000000000014
21
994
31
0
0
LINE
5
171
100
AcDbEntity
8
0
100
AcDbLine
10
-145.00000000000009
20
159.50000000000014
30
0
11
-245.00000000000014
21
159.50000000000014
31
0
0
LINE
5
172
100
AcDbEntity
8
0
100
AcDbLine
10
-96.000000000000014
20
1000
30
0
11
-96.000000000000057
21
994
31
0
0
LINE
5
173
100
AcDbEntity
8
0
100
AcDbLine
10
-163.85044944139108
20
994
30
0
11
-212.50000000000011
21
790
31
0
0
LINE
5
174
100
AcDbEntity
8
0
100
AcDbLine
10
-36
20
1000
30
0
11
-36
21
994
31
0
0
SPLINE
5
175
100
AcDbEntity
8
0
100
AcDbSpline
70
4
71
5
72
26
73
20
74
0
42
0.000000001
43
0.0000000001
44
0.0000000001
40
0
40
0
40
0
40
0
40
0
40
0
40
0.066666666666666666
40
0.13333333333333333
40
0.20000000000000001
40
0.26666666666666666
40
0.33333333333333331
40
0.39999999999999997
40
0.46666666666666662
40
0.53333333333333333
40
0.59999999999999998
40
0.66666666666666663
40
0.73333333333333328
40
0.79999999999999993
40
0.86666666666666659
40
0.93333333333333324
40
1
40
1
40
1
40
1
40
1
40
1
41
1
41
1
41
1
41
1
41
1
41
1
41
1
41
1
41
1
41
1
41
1
41
1
41
1
41
1
41
1
41
1
41
1
41
1
41
1
41
1
10
0
20
900
30
0
10
-5.7060251302273093
20
889.00832053473346
30
0
10
-16.643632204722717
20
866.79601522601365
30
0
10
-31.626713184586169
20
832.79071281406334
30
0
10
-48.736802909264043
20
786.06667803935636
30
0
10
-65.232830384807812
20
725.34520106772663
30
0
10
-76.718668130646051
20
662.38380888295819
30
0
10
-83.132761633089146
20
597.42155877340917
30
0
10
-84.556209304884476
20
530.95446759652543
30
0
10
-81.293036569499137
20
463.81769822611773
30
0
10
-74.018937438085345
20
397.33436181726813
30
0
10
-63.750413795300922
20
333.26009112494881
30
0
10
-51.659608547787705
20
273.54633964380656
30
0
10
-38.95229218281883
20
220.16346299047925
30
0
10
-26.721042958781457
20
174.87044655471243
30
0
10
-15.830127493105632
20
139.02390728201152
30
0
10
-8.5505465523269688
20
118.38846312265284
30
0
10
-3.9449449824881162
20
107.44347506170315
30
0
10
-1.2520848390508617
20
102.14772755240089
30
0
10
0
20
100
30
0
0
ENDSEC
0
SECTION
2
OBJECTS
0
DICTIONARY
5
C
100
AcDbDictionary
3
ACAD_GROUP
350
D
3
ACAD_MLINESTYLE
350
17
0
DICTIONARY
5
D
100
AcDbDictionary
0
DICTIONARY
5
1A
330
C
100
AcDbDictionary
0
DICTIONARY
5
17
100
AcDbDictionary
0
ENDSEC
0
EOF
