0
SECTION
2
HEADER
9
$INSUNITS
70
4
9
$ACADVER
1
AC1014
9
$HANDSEED
5
FFFF
0
ENDSEC
0
SECTION
2
TABLES
0
TABLE
2
VPORT
5
8
100
AcDbSymbolTable
0
ENDTAB
0
TABLE
2
LTYPE
5
5
100
AcDbSymbolTable
0
LTYPE
5
14
100
AcDbSymbolTableRecord
100
AcDbLinetypeTableRecord
2
BYBLOCK
70
0
0
LTYPE
5
15
100
AcDbSymbolTableRecord
100
AcDbLinetypeTableRecord
2
BYLAYER
70
0
0
ENDTAB
0
TABLE
2
LAYER
5
2
100
AcDbSymbolTable
70
2
0
LAYER
5
50
100
AcDbSymbolTableRecord
100
AcDbLayerTableRecord
2
0
70
0
6
CONTINUOUS
0
ENDTAB
0
TABLE
2
STYLE
5
3
100
AcDbSymbolTable
70
1
0
STYLE
5
11
100
AcDbSymbolTableRecord
100
AcDbTextStyleTableRecord
2
STANDARD
70
0
0
ENDTAB
0
TABLE
2
VIEW
5
6
100
AcDbSymbolTable
70
0
0
ENDTAB
0
TABLE
2
UCS
5
7
100
AcDbSymbolTable
70
0
0
ENDTAB
0
TABLE
2
APPID
5
9
100
AcDbSymbolTable
70
2
0
APPID
5
12
100
AcDbSymbolTableRecord
100
AcDbRegAppTableRecord
2
ACAD
70
0
0
ENDTAB
0
TABLE
2
DIMSTYLE
5
A
100
AcDbSymbolTable
70
1
0
ENDTAB
0
TABLE
2
BLOCK_RECORD
5
1
100
AcDbSymbolTable
70
1
0
BLOCK_RECORD
5
1F
100
AcDbSymbolTableRecord
100
AcDbBlockTableRecord
2
*MODEL_SPACE
0
BLOCK_RECORD
5
1B
100
AcDbSymbolTableRecord
100
AcDbBlockTableRecord
2
*PAPER_SPACE
0
ENDTAB
0
ENDSEC
0
SECTION
2
BLOCKS
0
BLOCK
5
20
100
AcDbEntity
100
AcDbBlockBegin
2
*MODEL_SPACE
0
ENDBLK
5
21
100
AcDbEntity
100
AcDbBlockEnd
0
BLOCK
5
1C
100
AcDbEntity
100
AcDbBlockBegin
2
*PAPER_SPACE
0
ENDBLK
5
1D
100
AcDbEntity
100
AcDbBlockEnd
0
ENDSEC
0
SECTION
2
ENTITIES
0
LINE
5
100
100
AcDbEntity
8
0
100
AcDbLine
10
-245.00000000000011
20
503.00000000000011
30
0
11
-195.00000000000011
21
503.00000000000011
31
0
0
CIRCLE
5
101
100
AcDbEntity
8
0
100
AcDbCircle
10
-99.781905613053823
20
618
30
0
40
10
210
0
220
0
230
1
0
LINE
5
102
100
AcDbEntity
8
0
100
AcDbLine
10
-42.000000000000021
20
994
30
0
11
-42.000000000000021
21
1000
31
0
0
LINE
5
103
100
AcDbEntity
8
0
100
AcDbLine
10
-72.000000000000014
20
1000
30
0
11
-72.000000000000014
21
994
31
0
0
LINE
5
104
100
AcDbEntity
8
0
100
AcDbLine
10
-145.00000000000009
20
165.50000000000009
30
0
11
-145.00000000000009
21
159.50000000000014
31
0
0
LINE
5
105
100
AcDbEntity
8
0
100
AcDbLine
10
-114
20
1000
30
0
11
-120
21
1000
31
0
0
LINE
5
106
100
AcDbEntity
8
0
100
AcDbLine
10
-60
20
994
30
0
11
-66.000000000000014
21
994
31
0
0
LINE
5
107
100
AcDbEntity
8
0
100
AcDbLine
10
-54.000000000000021
20
1000
30
0
11
-60
21
1000
31
0
0
LINE
5
108
100
AcDbEntity
8
0
100
AcDbLine
10
-24.000000000000004
20
994
30
0
11
-30
21
994
31
0
0
LINE
5
109
100
AcDbEntity
8
0
100
AcDbLine
10
-162.50000000000014
20
2.0000000000000006e-14
30
0
11
0
21
0
31
0
0
LINE
5
110
100
AcDbEntity
8
0
100
AcDbLine
10
-12.000000000000002
20
1000
30
0
11
-12.000000000000002
21
994
31
0
0
LINE
5
111
100
AcDbEntity
8
0
100
AcDbLine
10
-108
20
994
30
0
11
-114
21
994
31
0
0
CIRCLE
5
112
100
AcDbEntity
8
0
100
AcDbCircle
10
-220.00000000000011
20
382
30
0
40
10
210
0
220
0
230
1
0
LINE
5
113
100
AcDbEntity
8
0
100
AcDbLine
10
-15.000000000000178
20
2.9999999999999998e-14
30
0
11
-20.000000000000171
21
2.9999999999999998e-14
31
0
0
LINE
5
114
100
AcDbEntity
8
0
100
AcDbLine
10
-195.00000000000011
20
497
30
0
11
-245.00000000000031
21
497
31
0
0
LINE
5
115
100
AcDbEntity
8
0
100
AcDbLine
10
-78.000000000000014
20
1000
30
0
11
-84.000000000000043
21
1000
31
0
0
LINE
5
116
100
AcDbEntity
8
0
100
AcDbLine
10
-42.000000000000021
20
1000
30
0
11
-48.000000000000007
21
1000
31
0
0
LINE
5
117
100
AcDbEntity
8
0
100
AcDbLine
10
-132
20
994
30
0
11
-138
21
994
31
0
0
LINE
5
118
100
AcDbEntity
8
0
100
AcDbLine
10
-145.00000000000009
20
159.50000000000014
30
0
11
-245.00000000000014
21
159.50000000000014
31
0
0
LINE
5
119
100
AcDbEntity
8
0
100
AcDbLine
10
-12.000000000000002
20
994
30
0
11
-18
21
994
31
0
0
LINE
5
120
100
AcDbEntity
8
0
100
AcDbLine
10
-96.000000000000014
20
1000
30
0
11
-96.000000000000057
21
994
31
0
0
LINE
5
121
100
AcDbEntity
8
0
100
AcDbLine
10
-84.000000000000043
20
994
30
0
11
-90.000000000000014
21
994
31
0
0
LINE
5
122
100
AcDbEntity
8
0
100
AcDbLine
10
-96.000000000000057
20
994
30
0
11
-102.00000000000001
21
994
31
0
0
LINE
5
123
100
AcDbEntity
8
0
100
AcDbLine
10
-6.0000000000000018
20
994
30
0
11
-6.0000000000000018
21
1000
31
0
0
LINE
5
124
100
AcDbEntity
8
0
100
AcDbLine
10
-18
20
1000
30
0
11
-24.000000000000004
21
1000
31
0
0
LINE
5
125
100
AcDbEntity
8
0
100
AcDbLine
10
-84.000000000000043
20
1000
30
0
11
-84.000000000000043
21
994
31
0
0
LINE
5
126
100
AcDbEntity
8
0
100
AcDbLine
10
-132
20
1000
30
0
11
-132
21
994
31
0
0
LINE
5
127
100
AcDbEntity
8
0
100
AcDbLine
10
-156
20
1000
30
0
11
-156
21
994
31
0
0
LINE
5
128
100
AcDbEntity
8
0
100
AcDbLine
10
-126.00000000000001
20
1000
30
0
11
-132
21
1000
31
0
0
CIRCLE
5
129
100
AcDbEntity
8
0
100
AcDbCircle
10
-25
20
50
30
0
40
10
210
0
220
0
230
1
0
LINE
5
130
100
AcDbEntity
8
0
100
AcDbLine
10
-150
20
1000
30
0
11
-156
21
1000
31
0
0
LINE
5
131
100
AcDbEntity
8
0
100
AcDbLine
10
-1.0000000000000001e-15
20
994
30
0
11
-6.0000000000000018
21
994
31
0
0
LINE
5
132
100
AcDbEntity
8
0
100
AcDbLine
10
-78.000000000000014
20
994
30
0
11
-78.000000000000014
21
1000
31
0
0
CIRCLE
5
133
100
AcDbEntity
8
0
100
AcDbCircle
10
-99.781905613053823
20
382
30
0
40
10
210
0
220
0
230
1
0
LINE
5
134
100
AcDbEntity
8
0
100
AcDbLine
10
-66.000000000000014
20
994
30
0
11
-66.000000000000014
21
1000
31
0
0
LINE
5
135
100
AcDbEntity
8
0
100
AcDbLine
10
-245.00000000000031
20
497
30
0
11
-245.00000000000011
21
165.50000000000011
31
0
0
LINE
5
136
100
AcDbEntity
8
0
100
AcDbLine
10
-102.00000000000001
20
1000
30
0
11
-108
21
1000
31
0
0
LINE
5
137
100
AcDbEntity
8
0
100
AcDbLine
10
-30
20
994
30
0
11
-30
21
1000
31
0
0
LINE
5
138
100
AcDbEntity
8
0
100
AcDbLine
10
-245.00000000000011
20
165.50000000000011
30
0
11
-145.00000000000009
21
165.50000000000009
31
0
0
LINE
5
139
100
AcDbEntity
8
0
100
AcDbLine
10
-108
20
1000
30
0
11
-108
21
994
31
0
0
LINE
5
140
100
AcDbEntity
8
0
100
AcDbLine
10
-144
20
1000
30
0
11
-144
21
994
31
0
0
LINE
5
141
100
AcDbEntity
8
0
100
AcDbLine
10
-48.000000000000007
20
994
30
0
11
-54.000000000000021
21
994
31
0
0
LINE
5
142
100
AcDbEntity
8
0
100
AcDbLine
10
-102.00000000000001
20
994
30
0
11
-102.00000000000001
21
1000
31
0
0
CIRCLE
5
143
100
AcDbEntity
8
0
100
AcDbCircle
10
-25
20
947
30
0
40
9.999999999999984
210
0
220
0
230
1
0
LINE
5
144
100
AcDbEntity
8
0
100
AcDbLine
10
-54.000000000000021
20
994
30
0
11
-54.000000000000021
21
1000
31
0
0
LINE
5
145
100
AcDbEntity
8
0
100
AcDbLine
10
-163.85044944139108
20
994
30
0
11
-212.50000000000011
21
790
31
0
0
LINE
5
146
100
AcDbEntity
8
0
100
AcDbLine
10
-18
20
994
30
0
11
-18
21
1000
31
0
0
LINE
5
147
100
AcDbEntity
8
0
100
AcDbLine
10
-212.50000000000011
20
790
30
0
11
-245.00000000000011
21
790
31
0
0
LINE
5
148
100
AcDbEntity
8
0
100
AcDbLine
10
-36
20
1000
30
0
11
-36
21
994
31
0
0
LINE
5
149
100
AcDbEntity
8
0
100
AcDbLine
10
-1.0000000000000001e-15
20
994
30
0
11
0
21
900
31
0
0
LINE
5
150
100
AcDbEntity
8
0
100
AcDbLine
10
-48.000000000000007
20
1000
30
0
11
-48.000000000000007
21
994
31
0
0
LINE
5
151
100
AcDbEntity
8
0
100
AcDbLine
10
0
20
0
30
0
11
0
21
100
31
0
0
LINE
5
152
100
AcDbEntity
8
0
100
AcDbLine
10
-138
20
1000
30
0
11
-144
21
1000
31
0
0
LINE
5
153
100
AcDbEntity
8
0
100
AcDbLine
10
-245.00000000000014
20
159.50000000000014
30
0
11
-245.00000000000014
21
141.44345159815654
31
0
0
LINE
5
154
100
AcDbEntity
8
0
100
AcDbLine
10
-90.000000000000014
20
1000
30
0
11
-96.000000000000014
21
1000
31
0
0
LINE
5
155
100
AcDbEntity
8
0
100
AcDbLine
10
-144
20
994
30
0
11
-150
21
994
31
0
0
LINE
5
156
100
AcDbEntity
8
0
100
AcDbLine
10
-120
20
1000
30
0
11
-120
21
994
31
0
0
LINE
5
157
100
AcDbEntity
8
0
100
AcDbLine
10
-90.000000000000014
20
994
30
0
11
-90.000000000000014
21
1000
31
0
0
CIRCLE
5
158
100
AcDbEntity
8
0
100
AcDbCircle
10
-220.00000000000011
20
618
30
0
40
10
210
0
220
0
230
1
0
LINE
5
159
100
AcDbEntity
8
0
100
AcDbLine
10
-150
20
994
30
0
11
-150
21
1000
31
0
0
ARC
5
160
100
AcDbEntity
8
0
100
AcDbCircle
10
-325.00000000000028
20
4.0000000000000013e-14
30
0
40
162.50000000000014
210
0
220
0
230
1
100
AcDbArc
50
0
51
60.507627324937737
0
LINE
5
161
100
AcDbEntity
8
0
100
AcDbLine
10
-6.0000000000000018
20
1000
30
0
11
-12.000000000000002
21
1000
31
0
0
LINE
5
162
100
AcDbEntity
8
0
100
AcDbLine
10
-138
20
994
30
0
11
-138
21
1000
31
0
0
LINE
5
163
100
AcDbEntity
8
0
100
AcDbLine
10
-66.000000000000014
20
1000
30
0
11
-72.000000000000014
21
1000
31
0
0
LINE
5
164
100
AcDbEntity
8
0
100
AcDbLine
10
-60
20
1000
30
0
11
-60
21
994
31
0
0
LINE
5
165
100
AcDbEntity
8
0
100
AcDbLine
10
-72.000000000000014
20
994
30
0
11
-78.000000000000014
21
994
31
0
0
LINE
5
166
100
AcDbEntity
8
0
100
AcDbLine
10
-156
20
994
30
0
11
-163.85044944139108
21
994
31
0
0
LINE
5
167
100
AcDbEntity
8
0
100
AcDbLine
10
-126.00000000000001
20
994
30
0
11
-126.00000000000001
21
1000
31
0
0
LINE
5
168
100
AcDbEntity
8
0
100
AcDbLine
10
-30
20
1000
30
0
11
-36
21
1000
31
0
0
LINE
5
169
100
AcDbEntity
8
0
100
AcDbLine
10
-120
20
994
30
0
11
-126.00000000000001
21
994
31
0
0
LINE
5
170
100
AcDbEntity
8
0
100
AcDbLine
10
-24.000000000000004
20
1000
30
0
11
-24.000000000000004
21
994
31
0
0
LINE
5
171
100
AcDbEntity
8
0
100
AcDbLine
10
-114
20
994
30
0
11
-114
21
1000
31
0
0
LINE
5
172
100
AcDbEntity
8
0
100
AcDbLine
10
-195.00000000000011
20
503.00000000000011
30
0
11
-195.00000000000011
21
497
31
0
0
LINE
5
173
100
AcDbEntity
8
0
100
AcDbLine
10
-36
20
994
30
0
11
-42.000000000000021
21
994
31
0
0
LINE
5
174
100
AcDbEntity
8
0
100
AcDbLine
10
-245.00000000000011
20
790
30
0
11
-245.00000000000011
21
503.00000000000011
31
0
0
LWPOLYLINE
5
175
100
AcDbEntity
8
0
100
AcDbPolyline
90
72
43
0.0
10
0.0
20
900.0
10
-3.6772674536861816
20
893.5350115740329
10
-7.347090085367589
20
886.7118622429399
10
-11.009281565912268
20
879.5299673304859
10
-14.66336953709629
20
871.9884063712885
10
-18.308456684869103
20
864.0859707733603
10
-21.943081243901805
20
855.8212154004699
10
-25.565077172480084
20
847.1925124145953
10
-29.171433982408104
20
838.1981059467765
10
-32.75815473052714
20
828.836170614043
10
-36.32011247944412
20
819.1048732392467
10
-39.850906467223055
20
809.0024353639105
10
-43.34271720662586
20
798.5271996460535
10
-46.78616030009268
20
787.6777009236275
10
-50.170148423942855
20
776.4527391330065
10
-53.48187692210509
20
764.8514674872545
10
-56.707024285326305
20
752.8735071709013
10
-59.83000979247498
20
740.5190692080473
10
-62.83425231738164
20
727.7890795845459
10
-65.70242928591409
20
714.6853122839703
10
-68.41673568298084
20
701.2105254594754
10
-70.95914258364019
20
687.3685986730558
10
-73.31165388658523
20
673.1646736967932
10
-75.45656202887176
20
658.6052973823956
10
-77.37670560347053
20
643.6985671551198
10
-79.05573821457256
20
628.4542906626232
10
-80.47840668677752
20
612.8841572068984
10
-81.63082917818511
20
597.0019096138014
10
-82.50076308070655
20
580.8235082306187
10
-83.0778606515004
20
564.3672854657192
10
-83.35392482930652
20
547.6541008872658
10
-83.32319947542906
20
530.7075289927411
10
-82.98271948748972
20
513.5541037957208
10
-82.3326722160959
20
496.2235741733745
10
-81.37663898345127
20
478.74904633533856
10
-80.12153146285283
20
461.1668390119676
10
-78.577407418086
20
443.51622505021595
10
-76.75725940799788
20
425.83914689464996
10
-74.67671923771817
20
408.17985025633794
10
-72.35371399004502
20
390.58447075757846
10
-69.80812472870034
20
373.10062223249565
10
-67.0614791663346
20
355.77701266242997
10
-64.13667260905366
20
338.663083116876
10
-61.05769131713569
20
321.8086480463581
10
-57.84932918471618
20
305.2635246531509
10
-54.536896387474606
20
289.0771491372297
10
-51.14592686248821
20
273.2981905292992
10
-47.70188934604126
20
257.97416290736425
10
-44.22990461560076
20
243.1510348343467
10
-40.754464332865425
20
228.87283786950718
10
-37.299148638440755
20
215.18127020386368
10
-33.886340496479676
20
202.1152879543797
10
-30.536938725798677
20
189.71069149231135
10
-27.270069266062553
20
177.99970620394606
10
-24.102789994043945
20
167.01054302354638
10
-21.049792227851754
20
156.76694804639743
10
-18.123153291552743
20
147.2878436057964
10
-15.332381335755386
20
138.58749479508478
10
-13.990284429886554
20
134.53268542805796
10
-12.68470347779167
20
130.67611345134807
10
-11.416237179095871
20
127.01852905531919
10
-10.185380986205693
20
123.56051021774108
10
-8.992536833362003
20
120.30248250534886
10
-7.838022862986798
20
117.24473886258458
10
-6.722083152029656
20
114.38745940033728
10
-5.644897438288697
20
111.73073118460938
10
-4.6065908334979175
20
109.27456798711285
10
-3.607243418160188
20
107.0189296956651
10
-2.6468996943428067
20
104.96374131596664
10
-1.7255780135350829
20
103.10891190163541
10
-0.8432800043123501
20
101.45435348368451
10
-1.1859764898205588e-15
20
100.0
0
ENDSEC
0
SECTION
2
OBJECTS
0
DICTIONARY
5
C
100
AcDbDictionary
3
ACAD_GROUP
350
D
3
ACAD_MLINESTYLE
350
17
0
DICTIONARY
5
D
100
AcDbDictionary
0
DICTIONARY
5
1A
330
C
100
AcDbDictionary
0
DICTIONARY
5
17
100
AcDbDictionary
0
ENDSEC
0
EOF
